<?xml version="1.0" encoding="utf-8"?><svg xmlns="http://www.w3.org/2000/svg" xmlns:xlink="http://www.w3.org/1999/xlink"><symbol viewBox="0 0 23 45" id="facabook" xmlns="http://www.w3.org/2000/svg"><path d="M5.871 45V23.885H0v-7.603h5.871V9.79C5.871 4.686 9.34 0 17.331 0c3.236 0 5.628.295 5.628.295l-.188 7.1s-2.44-.023-5.103-.023c-2.882 0-3.344 1.263-3.344 3.359v5.551H23l-.378 7.603h-8.298V45H5.871z"/></symbol><symbol viewBox="0 0 40 43" id="hart-clock" xmlns="http://www.w3.org/2000/svg"><g clip-path="url(#bclip0)"><path d="M36.827 5.969c-2.07-2.364-4.912-3.666-8.001-3.666-2.309 0-4.424.768-6.285 2.283-.94.765-1.79 1.7-2.541 2.793a13.253 13.253 0 00-2.541-2.793c-1.861-1.515-3.976-2.283-6.285-2.283-3.089 0-5.93 1.302-8.001 3.666C1.127 8.305 0 11.497 0 14.956c0 3.561 1.26 6.821 3.967 10.259 2.422 3.075 5.901 6.197 9.931 9.812a476.832 476.832 0 014.556 4.124c.427.395.976.612 1.546.612a2.28 2.28 0 001.546-.611c1.62-1.491 3.18-2.891 4.557-4.126 4.029-3.614 7.509-6.736 9.93-9.811C38.74 21.777 40 18.517 40 14.956c0-3.46-1.127-6.651-3.173-8.987z"/></g><path d="M23.71 21.805a2.79 2.79 0 00-1.949-.654 2.82 2.82 0 00-1.871.87 3.087 3.087 0 00-.828 1.972 3.116 3.116 0 00.638 2.05c.802-1.88 2.228-3.386 4.01-4.238zM27.43 25a.487.487 0 00-.132-.335.44.44 0 00-.318-.139.44.44 0 00-.318.14.487.487 0 00-.132.334v4.737l3.53 1.842a.43.43 0 00.344.022.459.459 0 00.259-.24.497.497 0 00.02-.363.467.467 0 00-.228-.272l-3.03-1.579L27.43 25z"/><path d="M32 34.621a7.43 7.43 0 001.836-3.544 7.676 7.676 0 00-.231-4.03 3.329 3.329 0 01-1.055.027c.527 1.35.593 2.85.188 4.246a6.298 6.298 0 01-2.412 3.41 5.77 5.77 0 01-3.918 1.029 5.881 5.881 0 01-3.65-1.82 6.458 6.458 0 01-1.729-3.842 6.575 6.575 0 01.977-4.125 6.037 6.037 0 013.24-2.538 5.72 5.72 0 014.034.198 4.165 4.165 0 01-.03-.474c.002-.214.02-.427.055-.637a6.67 6.67 0 00-4.607.02c-1.49.554-2.757 1.622-3.597 3.03a7.68 7.68 0 00-1.03 4.726 7.533 7.533 0 001.984 4.377l-1.275 1.342a.545.545 0 00-.144.376.547.547 0 00.152.374.49.49 0 00.357.151.492.492 0 00.355-.16l1.33-1.4a6.725 6.725 0 004.227 1.483 6.73 6.73 0 004.213-1.524l1.37 1.442a.485.485 0 00.679-.028.544.544 0 00.026-.715L32 34.622z"/><path d="M33 25.79c1.38 0 2.5-1.179 2.5-2.632s-1.12-2.632-2.5-2.632-2.5 1.179-2.5 2.632 1.12 2.631 2.5 2.631z"/><defs><clipPath id="bclip0"><path d="M0 0h40v42.105H0z"/></clipPath></defs></symbol><symbol viewBox="0 0 45 45" id="insta" xmlns="http://www.w3.org/2000/svg"><path fill-rule="evenodd" clip-rule="evenodd" d="M13.224.135C15.623.025 16.388 0 22.5 0s6.877.027 9.274.135c2.397.108 4.034.49 5.465 1.045a11.07 11.07 0 013.985 2.598 10.99 10.99 0 012.594 3.982c.556 1.432.936 3.069 1.047 5.462.11 2.403.135 3.168.135 9.278 0 6.112-.027 6.877-.135 9.276-.109 2.393-.491 4.03-1.047 5.461a11.037 11.037 0 01-2.594 3.987 11.032 11.032 0 01-3.985 2.594c-1.431.556-3.068.937-5.461 1.047-2.401.11-3.166.135-9.278.135s-6.877-.027-9.276-.135c-2.393-.108-4.03-.49-5.462-1.047a11.04 11.04 0 01-3.986-2.594A11.028 11.028 0 011.18 37.24C.626 35.807.245 34.17.135 31.777.025 29.375 0 28.61 0 22.5c0-6.112.026-6.877.135-9.274.108-2.397.49-4.034 1.045-5.466a11.037 11.037 0 012.598-3.984A11.03 11.03 0 017.76 1.18C9.192.626 10.83.245 13.222.135h.002zm18.368 4.05c-2.373-.108-3.085-.13-9.092-.13-6.008 0-6.72.022-9.092.13-2.195.1-3.385.466-4.18.775-1.048.41-1.8.894-2.587 1.682a6.98 6.98 0 00-1.68 2.587c-.31.794-.676 1.984-.776 4.179-.109 2.373-.131 3.085-.131 9.092 0 6.008.022 6.72.13 9.092.101 2.195.467 3.385.776 4.179.36.976.935 1.861 1.681 2.587A6.984 6.984 0 009.23 40.04c.794.309 1.984.675 4.179.775 2.373.108 3.082.13 9.092.13 6.01 0 6.72-.022 9.092-.13 2.195-.1 3.385-.466 4.179-.775 1.05-.41 1.8-.894 2.587-1.682a6.985 6.985 0 001.682-2.587c.309-.794.675-1.984.775-4.179.108-2.373.13-3.084.13-9.092 0-6.008-.022-6.72-.13-9.092-.1-2.195-.466-3.385-.775-4.179-.41-1.05-.894-1.8-1.682-2.587a6.981 6.981 0 00-2.587-1.682c-.794-.309-1.984-.675-4.18-.775zM19.626 29.436a7.505 7.505 0 008.182-12.244 7.507 7.507 0 10-8.182 12.244zm-5.304-15.114A11.566 11.566 0 1130.678 30.68a11.566 11.566 0 01-16.356-16.357zm22.308-1.665a2.736 2.736 0 10-3.755-3.98 2.736 2.736 0 003.755 3.98z"/></symbol><symbol viewBox="0 0 220 41" id="logo" xmlns="http://www.w3.org/2000/svg"><path d="M50.93 33.748V17.396h5.727c1.984 0 3.489.382 4.515 1.146 1.025.756 1.538 1.868 1.538 3.335 0 .801-.206 1.509-.617 2.123-.412.606-.985 1.052-1.719 1.336.839.21 1.498.633 1.977 1.27.486.636.73 1.414.73 2.335 0 1.573-.502 2.763-1.505 3.572-1.003.808-2.433 1.22-4.29 1.235h-6.357zm3.369-7.12v4.413h2.886c.793 0 1.411-.187 1.853-.561.45-.382.674-.906.674-1.572 0-1.498-.775-2.258-2.325-2.28h-3.088zm0-2.381h2.493c1.7-.03 2.55-.708 2.55-2.033 0-.741-.218-1.273-.652-1.595-.427-.329-1.105-.494-2.033-.494h-2.358v4.122zm14.689 6.794h7.154v2.707H65.619V17.396h3.369v13.645zm18.553-.662h-5.907l-1.124 3.369h-3.582l6.087-16.352h3.122l6.12 16.352h-3.582l-1.134-3.37zm-4.998-2.73h4.088l-2.055-6.12-2.033 6.12zm23.831.652c-.127 1.76-.778 3.145-1.954 4.155-1.168 1.011-2.71 1.516-4.627 1.516-2.096 0-3.747-.703-4.952-2.11-1.198-1.416-1.797-3.355-1.797-5.818v-1c0-1.572.277-2.957.83-4.155.555-1.198 1.345-2.115 2.37-2.752 1.034-.643 2.231-.965 3.594-.965 1.887 0 3.407.505 4.56 1.516 1.153 1.01 1.819 2.43 1.999 4.256h-3.369c-.083-1.055-.379-1.82-.888-2.29-.501-.48-1.269-.72-2.302-.72-1.123 0-1.965.405-2.527 1.213-.554.801-.838 2.048-.853 3.74v1.235c0 1.767.266 3.059.797 3.875.54.816 1.385 1.224 2.538 1.224 1.041 0 1.816-.236 2.325-.707.517-.48.812-1.217.887-2.213h3.369zm7.334-1.112l-1.752 1.887v4.672h-3.369V17.396h3.369v7.412l1.482-2.032 4.167-5.38h4.144l-5.806 7.266 5.974 9.086h-4.009l-4.2-6.559zm15.206 6.559V17.396h5.031c1.438 0 2.722.326 3.852.977 1.138.644 2.025 1.565 2.662 2.763.636 1.19.954 2.546.954 4.066v.752c0 1.52-.314 2.871-.943 4.054a6.676 6.676 0 01-2.639 2.752c-1.138.651-2.422.98-3.852.988h-5.065zm3.369-13.623v10.916h1.628c1.318 0 2.325-.43 3.021-1.291.697-.861 1.052-2.093 1.067-3.695v-.865c0-1.662-.344-2.92-1.033-3.773-.689-.861-1.696-1.292-3.021-1.292h-1.662zm20.574 10.254h-5.907l-1.123 3.369h-3.583l6.087-16.352h3.122l6.121 16.352h-3.583l-1.134-3.37zm-4.997-2.73h4.088l-2.056-6.12-2.032 6.12zm22.202-7.524h-5.009v13.623h-3.369V20.125h-4.941v-2.729h13.319v2.73zm5.514 13.623h-3.369V17.396h3.369v16.352zm16.431 0h-3.37l-6.558-10.759v10.759h-3.369V17.396h3.369l6.57 10.782V17.396h3.358v16.352zm15.879-2.066c-.606.726-1.463 1.291-2.571 1.695-1.108.397-2.336.595-3.684.595-1.415 0-2.658-.306-3.728-.92-1.064-.622-1.887-1.52-2.471-2.696-.577-1.175-.872-2.557-.887-4.144V25.1c0-1.632.273-3.043.82-4.234.554-1.197 1.347-2.11 2.38-2.74 1.041-.636 2.258-.954 3.65-.954 1.939 0 3.456.464 4.549 1.392 1.093.921 1.74 2.265 1.942 4.032h-3.279c-.15-.936-.483-1.62-.999-2.055-.509-.434-1.213-.651-2.112-.651-1.145 0-2.017.43-2.616 1.291-.599.861-.903 2.141-.91 3.84v1.045c0 1.715.326 3.01.977 3.886.651.876 1.606 1.314 2.864 1.314 1.265 0 2.167-.27 2.706-.809v-2.819h-3.066v-2.481h6.435v6.524zM20.5 22.213C33.619 13.905 33.049 6.647 33.049 6.647c0-3.671-3.05-6.647-6.813-6.647A6.85 6.85 0 0020.5 3.059 6.85 6.85 0 0014.764 0C11 0 7.95 2.976 7.95 6.647c0 0-.57 7.258 12.549 15.566zM9.171 20.828l-.955.932a2.447 2.447 0 000 3.52l1.915 1.87-1.698 1.657-4.579-4.467.049-5.465c0-1.375-1.143-2.49-2.552-2.49H0v9.188l7.599 7.804c1.993 1.945 5.224 1.945 7.217 0a4.894 4.894 0 000-7.041l-5.645-5.508zm-1.366 15.56V40h8.506v-4.774a7.555 7.555 0 01-5.103 1.954 7.624 7.624 0 01-3.403-.792zM39.65 16.386c-1.41 0-2.553 1.115-2.553 2.49l.049 5.463-4.579 4.467-1.698-1.657 1.915-1.868a2.447 2.447 0 000-3.521l-.955-.932-5.646 5.508a4.894 4.894 0 000 7.041c1.994 1.945 5.225 1.945 7.218 0L41 25.573v-9.187h-1.35zm-14.961 18.84V40h8.506v-3.612a7.625 7.625 0 01-3.403.792 7.555 7.555 0 01-5.103-1.954z"/></symbol><symbol viewBox="0 0 45 43" id="student" xmlns="http://www.w3.org/2000/svg"><path d="M9.779 23.555v10.518s6.763-4.202 12.759-4.202 12.76 4.202 12.76 4.202V23.408s-6.451-5.089-12.86-5.089c-6.406-.004-12.66 5.236-12.66 5.236z"/><path d="M42.462 21.05L45 19.017l-2.538-2.096v-.994s.715-5.404-3.346-2.578c-.207.168-.318.337-.363.503L22.006 0 0 18.783l8.31 5.63v-1.827s6.973-5.838 14.12-5.838c7.145 0 14.337 5.674 14.337 5.674v3.191l4.588-3.675v14.879h-1.527v5.288l2.031-2.093 2.255 2.093v-5.29h-1.651V21.05zm-1.108-6.043v.996l-1.339-1.107c.488-.483 1.34-1.152 1.34.111zm-.453 5.836c-.592 0-1.075-.715-1.075-1.599 0-.883.483-1.6 1.075-1.6.594 0 1.073.717 1.073 1.6 0 .884-.48 1.599-1.073 1.599z"/></symbol><symbol viewBox="0 0 47 45" id="twitter" xmlns="http://www.w3.org/2000/svg"><path d="M47 5.338a17.095 17.095 0 01-5.537 1.787c2.014-1.42 3.52-3.653 4.24-6.285-1.893 1.324-3.964 2.255-6.124 2.755C38.127 1.768 36.203.558 34.107.15c-2.096-.407-4.248.013-6.121 1.194-1.873 1.181-3.363 3.058-4.237 5.338a13.23 13.23 0 00-.6 7.273c-3.835-.227-7.586-1.4-11.01-3.445-3.424-2.045-6.445-4.914-8.866-8.423a12.932 12.932 0 00-1.304 5.71 13 13 0 001.138 5.36c.748 1.65 1.83 3.055 3.15 4.094-1.53-.058-3.028-.545-4.367-1.421v.146c0 2.622.77 5.164 2.18 7.194 1.41 2.03 3.373 3.423 5.555 3.942-1.42.453-2.91.52-4.355.195.616 2.257 1.815 4.23 3.43 5.644 1.616 1.413 3.566 2.197 5.578 2.24-3.415 3.158-7.634 4.871-11.976 4.864-.77 0-1.538-.053-2.302-.158 4.408 3.338 9.539 5.11 14.78 5.103 17.739 0 27.436-17.304 27.436-32.312 0-.488-.01-.98-.029-1.468 1.887-1.606 3.515-3.596 4.809-5.875L47 5.338z"/></symbol><symbol viewBox="0 0 45 43" id="user-group" xmlns="http://www.w3.org/2000/svg"><g clip-path="url(#gclip0)"><path d="M36.8 32.932c2.308 1.518 3.627 4.224 3.462 6.93-.11 1.65-.165 1.715-1.923 1.98-1.099.197-8.022.263-15.165.263-8.076 0-16.538-.198-17.142-.396-2.418-.726-1.1-6.005 2.088-8.513 2.472-1.914 7.527-4.818 8.9-5.148 1.869-.462 2.089-1.848 0-6.335-.494-.99-1.043-4.026-1.098-7.194-.055-5.148.769-8.645 4.505-10.361a5.696 5.696 0 012.253-.462c2.472 0 4.78 1.65 5.714 4.092 1.374 3.233.824 11.879-.604 14.98-1.649 3.498-1.484 4.62.33 5.214 1.208.396 4.944 2.508 8.68 4.95zm-29.89-1.98c-.878.726-1.702 1.65-2.362 2.574-2.088 0-3.681-.066-3.846-.132-1.373-.396-.604-3.432 1.209-4.752 1.374-1.056 4.176-2.706 4.945-2.904.989-.264 1.209-.99 0-3.497-.275-.528-.604-2.244-.604-4.026-.055-2.904.44-4.884 2.527-5.742 1.758-.792 3.736.198 4.45 1.98.715 1.848.33 6.6-.439 8.316-.88 2.045-.714 2.573.275 2.903.22.066.659.33 1.263.66-2.417 1.188-5.714 3.366-7.417 4.62zm36.154-2.508c1.319.858 2.033 2.31 1.923 3.828-.055.924-.055.99-1.044 1.122-.274.066-1.538.132-3.186.132-.715-1.122-1.704-2.178-2.912-2.904-2.253-1.584-5-3.3-7.033-4.356.55-.264 1.044-.462 1.263-.528 1.044-.264 1.21-.99 0-3.497-.22-.528-.604-2.244-.604-4.026-.055-2.904.385-4.884 2.473-5.742 1.813-.792 3.79.198 4.45 1.98.714 1.848.44 6.6-.33 8.316-.879 2.045-.769 2.573.165 2.903.66.264 2.747 1.452 4.835 2.772z"/></g><defs><clipPath id="gclip0"><path d="M0 0h45v42.105H0z"/></clipPath></defs></symbol></svg>