<?xml version="1.0" encoding="UTF-8" standalone="no"?>
<!-- Created with Inkscape (http://www.inkscape.org/) -->

<svg
   xmlns:dc="http://purl.org/dc/elements/1.1/"
   xmlns:cc="http://creativecommons.org/ns#"
   xmlns:rdf="http://www.w3.org/1999/02/22-rdf-syntax-ns#"
   xmlns:svg="http://www.w3.org/2000/svg"
   xmlns="http://www.w3.org/2000/svg"
   xmlns:sodipodi="http://sodipodi.sourceforge.net/DTD/sodipodi-0.dtd"
   xmlns:inkscape="http://www.inkscape.org/namespaces/inkscape"
   version="1.1"
   id="svg32"
   width="48"
   height="53"
   viewBox="0 0 48 53"
   sodipodi:docname="yoga-efect3.svg"
   inkscape:version="0.92.4 (5da689c313, 2019-01-14)">
  <metadata
     id="metadata38">
    <rdf:RDF>
      <cc:Work
         rdf:about="">
        <dc:format>image/svg+xml</dc:format>
        <dc:type
           rdf:resource="http://purl.org/dc/dcmitype/StillImage" />
        <dc:title></dc:title>
      </cc:Work>
    </rdf:RDF>
  </metadata>
  <defs
     id="defs36" />
  <sodipodi:namedview
     pagecolor="#ffffff"
     bordercolor="#666666"
     borderopacity="1"
     objecttolerance="10"
     gridtolerance="10"
     guidetolerance="10"
     inkscape:pageopacity="0"
     inkscape:pageshadow="2"
     inkscape:window-width="1366"
     inkscape:window-height="706"
     id="namedview34"
     showgrid="false"
     inkscape:zoom="12.526778"
     inkscape:cx="19.611273"
     inkscape:cy="32.463662"
     inkscape:window-x="-8"
     inkscape:window-y="-8"
     inkscape:window-maximized="1"
     inkscape:current-layer="svg32" />
  <path
     style="fill:#000000;stroke-width:0.99394417"
     d="m 19.247399,51.940298 c -0.0402,-0.407518 -0.0529,-3.852908 -0.0281,-7.656418 0.0248,-3.803512 -0.5048,-11.805706 -1.17689,-17.782652 l -1.22199,-10.867176 -8.3409601,0.269751 c -6.20922,0.200811 -8.23714995,-0.03792 -7.93477995,-0.934062 0.64973995,-1.925695 5.41514995,-2.88255 18.77586005,-3.770045 13.969027,-0.927902 21.999997,-0.383213 21.999997,1.492121 0,0.808104 -2.56536,1.465699 -7.5,1.922531 l -7.499997,0.69432 v 3.739806 3.739803 l 5.749997,0.674017 c 7.57819,0.888318 15.74999,3.780204 15.74999,5.573701 0,0.946365 -0.83025,1.300381 -2.49999,1.065984 -1.375,-0.193023 -6.61184,-0.555778 -11.63741,-0.806125 l -9.137407,-0.455174 -0.68404,10.191413 c -0.37619,5.605275 -0.90718,10.969403 -1.17995,11.920281 -0.4807,1.675751 -3.2867,2.482929 -3.43433,0.987924 z M 31.320566,26.982574 c 8.424,-0.50205 8.45529,-0.513659 3.5,-1.298465 -11.205097,-1.774633 -10.499997,-1.367966 -10.499997,-6.055886 0,-4.869934 1.10767,-6.117785 6.004007,-6.763808 1.92279,-0.253694 -0.984687,-0.272065 -6.461057,-0.04082 -5.47638,0.231235 -10.16388,0.624762 -10.41667,0.874501 -0.25279,0.249739 0.71006,0.45407 2.13966,0.45407 1.62227,0 2.78336,0.649843 3.08902,1.72887 0.58804,2.075904 2.09632,21.111865 1.7729,22.375715 -0.12503,0.488589 0.12022,1.600005 0.54501,2.469812 0.47128,0.965012 0.97791,-1.306731 1.29973,-5.82797 l 0.5274,-7.409439 z M 18.383469,6.9897073 c -1.08308,-2.7588386 0.81396,-6.04804716 3.7385,-6.4820424 2.97509,-0.44149771 5.7326,3.8973214 4.23448,6.6627756 -1.58449,2.9248935 -6.80018,2.8066645 -7.97298,-0.1807332 z m 6.4371,-2.2228314 c 0,-2.5041515 -3.97179,-3.2788072 -4.87597,-0.9510063 -0.88996,2.2911797 0.19975,3.5851856 2.72033,3.2303329 1.38657,-0.195206 2.15564,-1.0083951 2.15564,-2.2793266 z"
     id="path96"
     inkscape:connector-curvature="0" />
</svg>
