<?xml version="1.0" encoding="UTF-8" standalone="no"?>
<!-- Created with Inkscape (http://www.inkscape.org/) -->

<svg
   xmlns:dc="http://purl.org/dc/elements/1.1/"
   xmlns:cc="http://creativecommons.org/ns#"
   xmlns:rdf="http://www.w3.org/1999/02/22-rdf-syntax-ns#"
   xmlns:svg="http://www.w3.org/2000/svg"
   xmlns="http://www.w3.org/2000/svg"
   xmlns:sodipodi="http://sodipodi.sourceforge.net/DTD/sodipodi-0.dtd"
   xmlns:inkscape="http://www.inkscape.org/namespaces/inkscape"
   version="1.1"
   id="svg82"
   width="28"
   height="36"
   viewBox="0 0 28 36"
   sodipodi:docname="yoga-efect8.svg"
   inkscape:version="0.92.4 (5da689c313, 2019-01-14)">
  <metadata
     id="metadata88">
    <rdf:RDF>
      <cc:Work
         rdf:about="">
        <dc:format>image/svg+xml</dc:format>
        <dc:type
           rdf:resource="http://purl.org/dc/dcmitype/StillImage" />
        <dc:title></dc:title>
      </cc:Work>
    </rdf:RDF>
  </metadata>
  <defs
     id="defs86" />
  <sodipodi:namedview
     pagecolor="#ffffff"
     bordercolor="#666666"
     borderopacity="1"
     objecttolerance="10"
     gridtolerance="10"
     guidetolerance="10"
     inkscape:pageopacity="0"
     inkscape:pageshadow="2"
     inkscape:window-width="1366"
     inkscape:window-height="706"
     id="namedview84"
     showgrid="false"
     inkscape:zoom="18.442201"
     inkscape:cx="18.761479"
     inkscape:cy="24.021444"
     inkscape:window-x="-8"
     inkscape:window-y="-8"
     inkscape:window-maximized="1"
     inkscape:current-layer="svg82" />
  <path
     style="fill:#000000;stroke-width:1.00028133"
     d="M 10.138609,33.494862 C 9.5940682,31.972239 9.7809172,30.220255 10.686981,28.353161 12.322526,24.982816 11.697363,23.43902 6.6379092,18.35419 -0.08837966,11.594177 -1.2845384,6.5906925 2.7978999,2.2915524 4.8901908,0.08820805 5.8687669,-0.23033347 8.8900584,0.30847948 c 4.4873756,0.80027242 5.6358116,0.80027242 10.1231876,0 3.021291,-0.53881295 3.999878,-0.22027143 6.092159,1.98307292 3.947114,4.1566278 3.364742,8.0035006 -2.169033,14.3277326 -7.420268,8.480185 -7.359551,8.357008 -5.751699,11.669408 2.045132,4.213241 0.624499,7.515763 -3.233017,7.515763 -2.203119,0 -3.203831,-0.606139 -3.813047,-2.309594 z m 5.43518,-1.352105 c 0.812411,-2.22949 -1.250043,-4.326143 -2.726314,-2.771513 -1.247704,1.313936 -0.47475,4.38024 1.104181,4.38024 0.569759,0 1.299726,-0.723928 1.622133,-1.608727 z M 19.45349,17.071082 c 2.721323,-2.96398 5.226926,-6.230874 5.56799,-7.2597652 C 25.798673,7.4667956 24.28191,4.3840778 21.610358,2.8784108 19.944313,1.9394423 19.047109,2.1306117 16.758973,3.912102 L 13.951656,6.0978147 11.144331,3.912102 C 8.8561958,2.1306117 7.9589914,1.9394423 6.2929469,2.8784108 2.8095579,4.841621 1.8700398,7.8314362 3.7746143,10.89247 c 2.1055864,3.384114 9.2443287,11.567664 10.0907977,11.567664 0.352116,0 2.866755,-2.425073 5.588078,-5.389052 z"
     id="path92"
     inkscape:connector-curvature="0" />
</svg>
