<?xml version="1.0" encoding="UTF-8" standalone="no"?>
<!-- Created with Inkscape (http://www.inkscape.org/) -->

<svg
   xmlns:dc="http://purl.org/dc/elements/1.1/"
   xmlns:cc="http://creativecommons.org/ns#"
   xmlns:rdf="http://www.w3.org/1999/02/22-rdf-syntax-ns#"
   xmlns:svg="http://www.w3.org/2000/svg"
   xmlns="http://www.w3.org/2000/svg"
   xmlns:sodipodi="http://sodipodi.sourceforge.net/DTD/sodipodi-0.dtd"
   xmlns:inkscape="http://www.inkscape.org/namespaces/inkscape"
   version="1.1"
   id="svg42"
   width="34"
   height="34"
   viewBox="0 0 34 34"
   sodipodi:docname="yoga-efect4.svg"
   inkscape:version="0.92.4 (5da689c313, 2019-01-14)">
  <metadata
     id="metadata48">
    <rdf:RDF>
      <cc:Work
         rdf:about="">
        <dc:format>image/svg+xml</dc:format>
        <dc:type
           rdf:resource="http://purl.org/dc/dcmitype/StillImage" />
        <dc:title></dc:title>
      </cc:Work>
    </rdf:RDF>
  </metadata>
  <defs
     id="defs46" />
  <sodipodi:namedview
     pagecolor="#ffffff"
     bordercolor="#666666"
     borderopacity="1"
     objecttolerance="10"
     gridtolerance="10"
     guidetolerance="10"
     inkscape:pageopacity="0"
     inkscape:pageshadow="2"
     inkscape:window-width="776"
     inkscape:window-height="480"
     id="namedview44"
     showgrid="false"
     inkscape:zoom="8.9747243"
     inkscape:cx="8.121778"
     inkscape:cy="0.65686927"
     inkscape:window-x="0"
     inkscape:window-y="0"
     inkscape:window-maximized="0"
     inkscape:current-layer="svg42" />
  <path
     style="fill:#000000;stroke-width:0.96232092"
     d="m 0.7799688,32.60031 c 0,-0.401123 0.4168991,-2.187828 0.9264427,-3.970457 0.624609,-2.185187 0.5773737,-4.550646 -0.1449859,-7.260518 -1.64825271,-6.18329 -0.3212516,-10.925571 4.376051,-15.6386182 6.9192394,-6.9424313 15.4299624,-6.9424313 22.3492014,0 6.919239,6.9424312 6.919239,15.4816802 0,22.4241112 -4.697302,4.713047 -9.423742,6.044496 -15.586375,4.390719 C 9.9994827,31.820766 7.6419253,31.773371 5.4640386,32.400075 1.5701191,33.52058 0.7799688,33.554357 0.7799688,32.60031 Z M 23.475996,29.415953 c 2.968329,-1.441759 4.630652,-3.109654 6.067594,-6.087932 2.486898,-5.154464 2.486898,-7.616033 0,-12.770498 -2.090161,-4.3321689 -7.851229,-8.0737364 -12.431512,-8.0737364 -1.251523,0 -4.115287,0.8936124 -6.363918,1.9858052 C 5.4106134,7.0621137 2.0898481,13.33455 3.218638,18.691746 c 0.4117094,1.95396 0.6969881,5.441236 0.6339529,7.749503 L 3.7379798,30.638098 6.928926,30.037466 c 1.7550195,-0.330347 4.223791,-0.186019 5.486158,0.32073 3.625307,1.455298 6.656406,1.197088 11.060912,-0.942243 z m -0.235738,-4.425806 c 1.401038,-1.405734 2.792979,-2.309421 3.093202,-2.008192 0.710494,0.712876 -3.127837,4.564073 -4.548827,4.564073 -0.600446,0 0.05459,-1.150146 1.455625,-2.555881 z M 8.0646636,22.855193 C 7.7817445,22.395885 8.4294442,21.221773 9.503998,20.246056 L 11.457733,18.472025 9.2411654,17.507728 C 7.2021631,16.62068 7.3209225,16.515695 10.723649,16.197183 c 4.778876,-0.447326 5.305764,0.20749 2.542021,3.159221 l -2.252797,2.40603 h 2.08889 c 1.14889,0 2.088891,0.43377 2.088891,0.963933 0,1.179093 -6.4077032,1.294934 -7.1259904,0.128826 z M 17.112078,19.15751 c 0,-0.372382 1.381768,-2.107461 3.070597,-3.855729 l 3.070596,-3.178671 h -3.070596 c -1.688829,0 -3.070597,-0.433769 -3.070597,-0.963932 0,-0.530163 1.945442,-0.963932 4.323205,-0.963932 5.056533,0 5.448199,1.126164 1.741684,5.007899 l -2.581521,2.70356 h 2.581521 c 1.419836,0 2.581521,0.433769 2.581521,0.963932 0,0.530163 -1.945442,0.963932 -4.323205,0.963932 -2.377763,0 -4.323205,-0.304676 -4.323205,-0.677059 z"
     id="path98"
     inkscape:connector-curvature="0" />
</svg>
