<?xml version="1.0" encoding="UTF-8" standalone="no"?>
<!-- Created with Inkscape (http://www.inkscape.org/) -->

<svg
   xmlns:dc="http://purl.org/dc/elements/1.1/"
   xmlns:cc="http://creativecommons.org/ns#"
   xmlns:rdf="http://www.w3.org/1999/02/22-rdf-syntax-ns#"
   xmlns:svg="http://www.w3.org/2000/svg"
   xmlns="http://www.w3.org/2000/svg"
   xmlns:sodipodi="http://sodipodi.sourceforge.net/DTD/sodipodi-0.dtd"
   xmlns:inkscape="http://www.inkscape.org/namespaces/inkscape"
   version="1.1"
   id="svg106"
   width="39"
   height="31"
   viewBox="0 0 39 31"
   sodipodi:docname="yoga-efect1.svg"
   inkscape:version="0.92.4 (5da689c313, 2019-01-14)">
  <metadata
     id="metadata112">
    <rdf:RDF>
      <cc:Work
         rdf:about="">
        <dc:format>image/svg+xml</dc:format>
        <dc:type
           rdf:resource="http://purl.org/dc/dcmitype/StillImage" />
        <dc:title></dc:title>
      </cc:Work>
    </rdf:RDF>
  </metadata>
  <defs
     id="defs110" />
  <sodipodi:namedview
     pagecolor="#ffffff"
     bordercolor="#666666"
     borderopacity="1"
     objecttolerance="10"
     gridtolerance="10"
     guidetolerance="10"
     inkscape:pageopacity="0"
     inkscape:pageshadow="2"
     inkscape:window-width="776"
     inkscape:window-height="480"
     id="namedview108"
     showgrid="false"
     inkscape:zoom="9.843246"
     inkscape:cx="4.8937978"
     inkscape:cy="15.5"
     inkscape:window-x="0"
     inkscape:window-y="0"
     inkscape:window-maximized="0"
     inkscape:current-layer="svg106" />
  <path
     style="fill:#000000;stroke-width:0.98188621"
     d="m 16.791903,27.691243 c -2.171035,-1.621956 -4.095361,-3.36826 -4.27628,-3.880675 -0.614634,-1.740819 2.006887,-0.940675 4.949665,1.510743 1.61258,1.343325 3.488328,2.442409 4.168329,2.442409 2.301291,0 13.247849,-10.705199 14.361006,-14.044361 C 37.2064,10.084363 36.300404,6.5615459 33.578664,4.3252956 31.323527,2.4724187 25.524145,2.5802238 23.573578,4.5112806 22.127178,5.9432137 21.715297,5.9101228 18.642204,4.1150894 12.68272,0.63407683 6.0658701,4.5061803 6.6312943,11.143735 c 0.2715895,3.18821 0.5502635,3.452206 3.9384287,3.73098 3.205572,0.26375 3.83467,-0.06089 5.206219,-2.68665 0.858035,-1.642658 1.753579,-2.9866501 1.9901,-2.9866501 0.236521,0 0.922812,1.8117171 1.52509,4.0260381 1.064265,3.912844 1.136271,3.967779 2.561079,1.953927 1.518796,-2.146698 5.707802,-2.815368 6.788861,-1.083674 0.339383,0.543641 -0.646005,1.238524 -2.18975,1.544185 -1.762093,0.348894 -3.484954,1.708248 -4.628758,3.652138 -1.957997,3.327604 -2.044704,3.268072 -4.027763,-2.765388 -0.596503,-1.814864 -0.711211,-1.832246 -1.611716,-0.244242 -0.776894,1.370024 -2.320566,1.709686 -7.7700661,1.709686 -6.6343388,0 -10.1881398,-1.545479 -6.0294976,-2.62211 1.6645973,-0.430948 2.072958,-1.2967 2.072958,-4.394805 0,-4.8745914 1.2720298,-7.2281562 4.9144177,-9.0928685 3.505269,-1.79451486 6.64597,-1.83163028 9.773245,-0.1154956 1.972887,1.082649 2.81724,1.0611696 5.235574,-0.1331876 8.030486,-3.9660639 16.616915,3.9765227 13.713691,12.6853877 -1.36323,4.089314 -14.130975,16.487536 -16.83362,16.346425 -0.286302,-0.01495 -2.29685,-1.354234 -4.467884,-2.976188 z"
     id="path116"
     inkscape:connector-curvature="0" />
</svg>
