<?xml version="1.0" encoding="UTF-8" standalone="no"?>
<!-- Created with Inkscape (http://www.inkscape.org/) -->

<svg
   xmlns:dc="http://purl.org/dc/elements/1.1/"
   xmlns:cc="http://creativecommons.org/ns#"
   xmlns:rdf="http://www.w3.org/1999/02/22-rdf-syntax-ns#"
   xmlns:svg="http://www.w3.org/2000/svg"
   xmlns="http://www.w3.org/2000/svg"
   xmlns:sodipodi="http://sodipodi.sourceforge.net/DTD/sodipodi-0.dtd"
   xmlns:inkscape="http://www.inkscape.org/namespaces/inkscape"
   version="1.1"
   id="svg72"
   width="49"
   height="33"
   viewBox="0 0 49 33"
   sodipodi:docname="yoga-efect7.svg"
   inkscape:version="0.92.4 (5da689c313, 2019-01-14)">
  <metadata
     id="metadata78">
    <rdf:RDF>
      <cc:Work
         rdf:about="">
        <dc:format>image/svg+xml</dc:format>
        <dc:type
           rdf:resource="http://purl.org/dc/dcmitype/StillImage" />
        <dc:title></dc:title>
      </cc:Work>
    </rdf:RDF>
  </metadata>
  <defs
     id="defs76" />
  <sodipodi:namedview
     pagecolor="#ffffff"
     bordercolor="#666666"
     borderopacity="1"
     objecttolerance="10"
     gridtolerance="10"
     guidetolerance="10"
     inkscape:pageopacity="0"
     inkscape:pageshadow="2"
     inkscape:window-width="1366"
     inkscape:window-height="706"
     id="namedview74"
     showgrid="false"
     inkscape:zoom="20.118765"
     inkscape:cx="18.085414"
     inkscape:cy="21.016083"
     inkscape:window-x="-8"
     inkscape:window-y="-8"
     inkscape:window-maximized="1"
     inkscape:current-layer="svg72" />
  <path
     style="fill:#000000;stroke-width:0.98113441"
     d="m 18.538209,31.595767 c -0.357696,-0.5723 0.171098,-1.634695 1.175101,-2.360876 1.569738,-1.13536 1.822384,-2.696267 1.8034,-11.141852 C 21.488393,5.4945741 21.269491,5.2531323 9.2623768,4.5761739 3.3706323,4.2439982 0.37819918,3.698638 0.61372648,2.9999845 1.1890126,1.2934278 8.2898191,0.5261278 20.847681,0.81354434 29.961722,1.0221404 33.361284,1.4909974 36.379785,2.9556839 c 4.060589,1.9703441 4.423307,2.7448989 9.787294,20.8999351 0.713429,2.414691 1.616427,5.158658 2.006663,6.097705 0.54542,1.31249 0.221557,1.707357 -1.400347,1.707357 -1.160429,0 -2.358134,-0.768311 -2.661574,-1.707357 -1.328754,-4.11209 -6.66017,-15.963245 -7.378888,-16.40247 -0.434844,-0.265742 -2.426678,2.053876 -4.426307,5.154707 -3.179269,4.930103 -5.421006,7.980463 -9.341617,12.711212 -1.237428,1.493129 -3.547068,1.586517 -4.4268,0.178994 z M 31.632653,16.294465 c 1.999886,-3.353738 4.14417,-6.097705 4.765079,-6.097705 0.62091,0 2.561507,3.073243 4.312416,6.82943 3.790351,8.131288 5.463946,9.36092 1.991844,1.463449 -0.471834,-1.073196 -1.472176,-4.129775 -2.22299,-6.792396 -2.058642,-7.300569 -4.53192,-8.6704891 -16.238854,-8.9945094 -7.57416,-0.2096343 -8.934053,-0.059504 -6.42414,0.7092108 4.5763,1.4015921 5.44809,3.8271538 5.387597,14.9896716 l -0.05338,9.84435 2.423116,-2.926898 c 1.332721,-1.609794 4.059395,-5.670865 6.05928,-9.024603 z m -6.374629,0.487816 c 0.04331,-5.8555 0.996613,-7.5611536 4.226033,-7.5611536 2.039421,0 2.192009,0.2929649 1.462566,2.8079496 -1.194686,4.119048 -4.089478,9.875276 -4.96625,9.875276 -0.41813,0 -0.743188,-2.304932 -0.722349,-5.122072 z m 4.632471,-5.823176 c 0.01924,-0.385608 -0.631043,-0.448395 -1.445043,-0.139526 -0.814,0.308867 -1.464263,1.721952 -1.445033,3.140186 l 0.03493,2.578608 1.410075,-2.439082 c 0.77554,-1.341495 1.425803,-2.754579 1.445033,-3.140186 z m -16.355022,0.769532 c -0.982395,-2.5314458 0.394557,-4.623704 2.818896,-4.2832949 3.161874,0.4439675 3.161874,5.0588689 0,5.5028359 -1.33425,0.187346 -2.462306,-0.300689 -2.818896,-1.219541 z m 4.109773,-0.641253 c 1.01678,-1.6267885 -1.270048,-3.4922872 -2.631165,-2.146393 -1.138535,1.125807 -0.425964,3.207035 1.098032,3.207035 0.478612,0 1.16853,-0.47729 1.533133,-1.060642 z"
     id="path104"
     inkscape:connector-curvature="0" />
</svg>
