<?xml version="1.0" encoding="UTF-8" standalone="no"?>
<!-- Created with Inkscape (http://www.inkscape.org/) -->

<svg
   xmlns:dc="http://purl.org/dc/elements/1.1/"
   xmlns:cc="http://creativecommons.org/ns#"
   xmlns:rdf="http://www.w3.org/1999/02/22-rdf-syntax-ns#"
   xmlns:svg="http://www.w3.org/2000/svg"
   xmlns="http://www.w3.org/2000/svg"
   xmlns:sodipodi="http://sodipodi.sourceforge.net/DTD/sodipodi-0.dtd"
   xmlns:inkscape="http://www.inkscape.org/namespaces/inkscape"
   version="1.1"
   id="svg22"
   width="43"
   height="25"
   viewBox="0 0 43 25"
   sodipodi:docname="yoga-efect2.svg"
   inkscape:version="0.92.4 (5da689c313, 2019-01-14)">
  <metadata
     id="metadata28">
    <rdf:RDF>
      <cc:Work
         rdf:about="">
        <dc:format>image/svg+xml</dc:format>
        <dc:type
           rdf:resource="http://purl.org/dc/dcmitype/StillImage" />
        <dc:title></dc:title>
      </cc:Work>
    </rdf:RDF>
  </metadata>
  <defs
     id="defs26" />
  <sodipodi:namedview
     pagecolor="#ffffff"
     bordercolor="#666666"
     borderopacity="1"
     objecttolerance="10"
     gridtolerance="10"
     guidetolerance="10"
     inkscape:pageopacity="0"
     inkscape:pageshadow="2"
     inkscape:window-width="1366"
     inkscape:window-height="706"
     id="namedview24"
     showgrid="false"
     inkscape:zoom="24.860989"
     inkscape:cx="30.159422"
     inkscape:cy="16.013527"
     inkscape:window-x="-8"
     inkscape:window-y="-8"
     inkscape:window-maximized="1"
     inkscape:current-layer="svg22" />
  <path
     style="fill:#000000;stroke-width:0.9731102"
     d="m 14.490995,23.245778 c -1.830672,-0.57988 -5.733623,-3.27572 -8.6732321,-5.99076 L 0.47304042,12.318585 5.8367928,7.4542818 C 16.451945,-2.1724401 27.183421,-2.1469883 37.660539,7.5297588 l 5.320525,4.9140752 -5.363752,4.864302 c -7.445457,6.752172 -14.686011,8.61117 -23.126317,5.937642 z m 16.361928,-3.531387 c 1.965533,-1.003329 4.803575,-3.10934 6.306755,-4.680022 L 39.892733,12.178583 36.413822,9.1476513 C 31.1194,4.5349878 27.115381,2.8074018 21.72705,2.8108474 16.168139,2.8144049 10.479366,5.3549673 6.3370387,9.6839157 L 3.6465853,12.495571 6.3370387,14.91023 c 8.7230823,7.828921 15.8531843,9.226145 24.5158843,4.804161 z M 18.307934,19.389723 c -3.092566,-1.581826 -5.125395,-5.718404 -4.338677,-8.828724 2.236981,-8.8440283 15.475225,-7.2869352 15.475225,1.82021 0,5.829713 -6.026435,9.6223 -11.136548,7.008514 z M 25.67901,16.30265 c 3.023983,-3.000621 3.023983,-4.842262 0,-7.8428816 -3.023973,-3.00062 -4.879947,-3.00062 -7.90393,0 -3.023969,3.0006196 -3.023969,4.8422606 0,7.8428816 3.023983,3.000619 4.879957,3.000619 7.90393,0 z m -8.347961,-4.696917 c 0,-1.6210416 1.980825,-3.5865765 3.614489,-3.5865765 0.698476,0 1.269957,0.4362062 1.269957,0.9693458 0,0.5331395 -0.659401,0.9693451 -1.465335,0.9693451 -0.805935,0 -1.465336,0.6543076 -1.465336,1.4540166 0,0.799711 -0.4396,1.454017 -0.97689,1.454017 -0.537289,0 -0.976885,-0.567066 -0.976885,-1.260148 z"
     id="path94"
     inkscape:connector-curvature="0" />
</svg>
