<?xml version="1.0" encoding="UTF-8" standalone="no"?>
<!-- Created with Inkscape (http://www.inkscape.org/) -->

<svg
   xmlns:dc="http://purl.org/dc/elements/1.1/"
   xmlns:cc="http://creativecommons.org/ns#"
   xmlns:rdf="http://www.w3.org/1999/02/22-rdf-syntax-ns#"
   xmlns:svg="http://www.w3.org/2000/svg"
   xmlns="http://www.w3.org/2000/svg"
   xmlns:sodipodi="http://sodipodi.sourceforge.net/DTD/sodipodi-0.dtd"
   xmlns:inkscape="http://www.inkscape.org/namespaces/inkscape"
   version="1.1"
   id="svg52"
   width="48"
   height="36"
   viewBox="0 0 48 36"
   sodipodi:docname="yoga-efect5.svg"
   inkscape:version="0.92.4 (5da689c313, 2019-01-14)">
  <metadata
     id="metadata58">
    <rdf:RDF>
      <cc:Work
         rdf:about="">
        <dc:format>image/svg+xml</dc:format>
        <dc:type
           rdf:resource="http://purl.org/dc/dcmitype/StillImage" />
        <dc:title></dc:title>
      </cc:Work>
    </rdf:RDF>
  </metadata>
  <defs
     id="defs56" />
  <sodipodi:namedview
     pagecolor="#ffffff"
     bordercolor="#666666"
     borderopacity="1"
     objecttolerance="10"
     gridtolerance="10"
     guidetolerance="10"
     inkscape:pageopacity="0"
     inkscape:pageshadow="2"
     inkscape:window-width="776"
     inkscape:window-height="480"
     id="namedview54"
     showgrid="false"
     inkscape:zoom="8.4761285"
     inkscape:cx="24"
     inkscape:cy="18"
     inkscape:window-x="0"
     inkscape:window-y="0"
     inkscape:window-maximized="0"
     inkscape:current-layer="svg52" />
  <path
     style="fill:#000000"
     d="m 12.951601,32.429783 c -2.195233,-5.405153 -2.208338,-13.614465 -0.0296,-18.53987 1.42552,-3.222624 1.862498,-5.777497 1.478206,-8.6426047 -0.582695,-4.34431604 1.033271,-5.75130144 2.087483,-1.8175243 0.998325,3.7252364 0.644263,8.101572 -0.869714,10.749999 -0.786021,1.375 -1.445075,2.8375 -1.464565,3.25 -0.01949,0.4125 4.464565,0.75 9.964565,0.75 5.500001,0 9.984055,-0.3375 9.964566,-0.75 -0.01949,-0.4125 -0.678544,-1.875 -1.464565,-3.25 -2.194646,-3.839132 -1.670053,-12.9999991 0.74444,-12.9999991 0.615326,0 0.767034,1.5267859 0.387527,3.9000863 -0.448148,2.8025668 -0.06818,5.1241908 1.350229,8.2499988 2.218366,4.888699 2.581162,11.866456 0.881322,16.950691 -2.394258,7.16125 -4.498112,6.658201 -2.326846,-0.556369 2.278437,-7.570673 2.000211,-7.910841 -3.518705,-4.302094 -4.273596,2.794448 -4.984588,3.719831 -5.000001,6.507686 -0.0099,1.7875 -0.467967,3.25 -1.017967,3.25 -0.55,0 -1.008085,-1.4625 -1.017967,-3.25 -0.01541,-2.787855 -0.726405,-3.713238 -5,-6.507686 -5.526894,-3.613963 -5.803833,-3.269163 -3.492857,4.348755 1.783563,5.879354 1.741289,5.408931 0.486073,5.408931 -0.563613,0 -1.527345,-1.2375 -2.141627,-2.75 z m 15.048345,-8.5 3.618034,-2.25 -3.75,-0.310365 c -2.062501,-0.170701 -5.437501,-0.170701 -7.500001,0 l -3.75,0.310365 3.5,2.233153 c 1.925,1.228235 3.671885,2.240735 3.881966,2.25 0.210081,0.0093 2.010081,-0.995653 4.000001,-2.233153 z M 8.5499346,11.863059 c -0.355264,-0.925802 -1.4977885,-1.683275 -2.5389457,-1.683275 -1.041156,0 -1.893011,-0.4499997 -1.893011,-0.9999997 0,-0.5500003 0.851855,-1.0000003 1.893011,-1.0000003 1.0411572,0 2.1836817,-0.7574747 2.5389457,-1.683277 0.579329,-1.5097067 0.871062,-1.4581494 2.8292114,0.5 l 2.183277,2.1832773 -2.183277,2.1832747 c -1.9581494,1.95815 -2.2498824,2.009708 -2.8292114,0.5 z M 36.64601,11.210756 C 34.773018,9.141124 34.776757,9.076562 36.892106,6.961213 38.8234,5.0299185 39.10525,4.983039 39.686023,6.496507 c 0.355263,0.9258023 1.497789,1.683277 2.538945,1.683277 1.041156,0 1.893011,0.45 1.893011,1.0000003 0,0.55 -0.737891,0.9999997 -1.639757,0.9999997 -0.901867,0 -2.155135,0.704819 -2.785041,1.566266 -1.019169,1.393797 -1.354712,1.334853 -3.047171,-0.535294 z"
     id="path100"
     inkscape:connector-curvature="0" />
</svg>
