<?xml version="1.0" encoding="UTF-8" standalone="no"?>
<!-- Created with Inkscape (http://www.inkscape.org/) -->

<svg
   xmlns:dc="http://purl.org/dc/elements/1.1/"
   xmlns:cc="http://creativecommons.org/ns#"
   xmlns:rdf="http://www.w3.org/1999/02/22-rdf-syntax-ns#"
   xmlns:svg="http://www.w3.org/2000/svg"
   xmlns="http://www.w3.org/2000/svg"
   xmlns:sodipodi="http://sodipodi.sourceforge.net/DTD/sodipodi-0.dtd"
   xmlns:inkscape="http://www.inkscape.org/namespaces/inkscape"
   version="1.1"
   id="svg62"
   width="19"
   height="51"
   viewBox="0 0 19 51"
   sodipodi:docname="yoga-efect6.svg"
   inkscape:version="0.92.4 (5da689c313, 2019-01-14)">
  <metadata
     id="metadata68">
    <rdf:RDF>
      <cc:Work
         rdf:about="">
        <dc:format>image/svg+xml</dc:format>
        <dc:type
           rdf:resource="http://purl.org/dc/dcmitype/StillImage" />
        <dc:title></dc:title>
      </cc:Work>
    </rdf:RDF>
  </metadata>
  <defs
     id="defs66" />
  <sodipodi:namedview
     pagecolor="#ffffff"
     bordercolor="#666666"
     borderopacity="1"
     objecttolerance="10"
     gridtolerance="10"
     guidetolerance="10"
     inkscape:pageopacity="0"
     inkscape:pageshadow="2"
     inkscape:window-width="776"
     inkscape:window-height="480"
     id="namedview64"
     showgrid="false"
     inkscape:zoom="5.9831495"
     inkscape:cx="8.166095"
     inkscape:cy="25.5"
     inkscape:window-x="0"
     inkscape:window-y="0"
     inkscape:window-maximized="0"
     inkscape:current-layer="svg62" />
  <path
     style="fill:#000000;stroke-width:0.95877367"
     d="M 5.5624392,49.164784 C 5.3470177,48.456729 4.9972959,45.641824 4.7852796,42.90944 4.5413879,39.76626 3.609978,36.824911 2.2495257,34.901647 0.80205048,32.855358 0.28028698,31.107947 0.65313622,29.555264 1.1808615,27.357624 1.5868026,27.248705 9.2497248,27.248705 c 7.6629222,0 8.0688632,0.108919 8.5965872,2.306559 0.371303,1.546242 -0.14295,3.291664 -1.560079,5.295052 -1.480487,2.092956 -2.258501,4.870533 -2.596305,9.269028 -0.651734,8.486141 -2.663361,7.823878 -2.296732,-0.756123 0.185127,-4.332389 0.836737,-7.08813 2.110091,-8.923837 1.01324,-1.46072 1.842255,-3.021084 1.842255,-3.467476 0,-0.799275 -11.184037,-0.647622 -11.958806,0.162159 -0.2188942,0.228787 0.5177262,1.710519 1.6369352,3.292739 C 7.3807651,37.759017 8.792155,48.61889 7.017143,49.765481 6.4324773,50.143154 5.7778606,49.87284 5.5624392,49.164784 Z M 2.1486052,23.792034 C -0.19358308,21.344005 -0.13948787,18.883478 2.3286185,15.603998 3.7096933,13.768904 4.4656563,11.023799 4.8043248,6.6140433 5.4600172,-1.9236365 7.4747448,-1.321067 7.1062527,7.3025094 6.9211264,11.634898 6.2695164,14.390638 4.9961621,16.226346 c -1.0132401,1.46072 -1.8422544,3.349191 -1.8422544,4.196603 0,2.012006 2.6493022,3.038135 4.5838247,1.775411 1.0283418,-0.671231 2.0112174,-0.67081 3.0306636,0.0013 1.919526,1.265548 4.577146,0.233939 4.577146,-1.776686 0,-0.847412 -0.907471,-2.823638 -2.016604,-4.391612 -1.479529,-2.091602 -2.0415,-4.365236 -2.110089,-8.5370378 -0.123366,-7.50345207 1.63006,-7.82954735 2.332965,-0.4338756 0.359326,3.7806794 1.255912,6.7323584 2.579,8.4904014 2.352217,3.125494 2.548157,5.233415 0.728269,7.834729 -1.934305,2.764862 -12.1831117,3.048057 -14.7104778,0.40648 z"
     id="path102"
     inkscape:connector-curvature="0" />
</svg>
