<svg width="40" height="43" viewBox="0 0 40 43" fill="none" xmlns="http://www.w3.org/2000/svg">
<g clip-path="url(#clip0)">
<path d="M36.8268 5.96858C34.7562 3.60459 31.915 2.30261 28.826 2.30261C26.517 2.30261 24.4025 3.07101 22.5409 4.58629C21.6016 5.35116 20.7504 6.28692 20 7.37913C19.2499 6.28724 18.3984 5.35116 17.4588 4.58629C15.5975 3.07101 13.483 2.30261 11.174 2.30261C8.08502 2.30261 5.24353 3.60459 3.17291 5.96858C1.12701 8.30494 0 11.4968 0 14.9565C0 18.5174 1.26068 21.777 3.96729 25.2149C6.38855 28.2901 9.86847 31.4119 13.8983 35.0268C15.2744 36.2613 16.8341 37.6606 18.4537 39.1511C18.8815 39.5456 19.4305 39.7628 20 39.7628C20.5692 39.7628 21.1185 39.5456 21.5457 39.1518C23.1653 37.6609 24.726 36.261 26.1026 35.0258C30.1318 31.4116 33.6118 28.2901 36.033 25.2146C38.7396 21.777 40 18.5174 40 14.9562C40 11.4968 38.873 8.30494 36.8268 5.96858Z" fill="#F2802B"/>
</g>
<path d="M23.71 21.8053C23.1581 21.3439 22.4649 21.1111 21.7611 21.1509C21.0574 21.1906 20.3918 21.5001 19.89 22.021C19.3923 22.5484 19.0976 23.2508 19.0625 23.9932C19.0274 24.7356 19.2545 25.4654 19.7 26.0421C20.5023 24.1632 21.928 22.6568 23.71 21.8053V21.8053Z" fill="white"/>
<path d="M27.43 25.0001C27.43 24.8744 27.3826 24.7539 27.2982 24.6651C27.2138 24.5763 27.0993 24.5264 26.98 24.5264C26.8607 24.5264 26.7462 24.5763 26.6618 24.6651C26.5774 24.7539 26.53 24.8744 26.53 25.0001V29.7369L30.06 31.579C30.1674 31.6341 30.2912 31.6421 30.4042 31.6011C30.5172 31.5602 30.6101 31.4736 30.6625 31.3606C30.7149 31.2475 30.7224 31.1172 30.6835 30.9982C30.6446 30.8793 30.5624 30.7815 30.455 30.7264L27.425 29.1474L27.43 25.0001Z" fill="white"/>
<path d="M32 34.6211C32.9159 33.6445 33.5521 32.4163 33.8359 31.0769C34.1198 29.7375 34.0397 28.3411 33.605 27.0474C33.2566 27.1122 32.9009 27.1211 32.55 27.0737C33.0769 28.4238 33.1433 29.9244 32.7379 31.3202C32.3325 32.7161 31.4803 33.921 30.3262 34.7301C29.1721 35.5393 27.7875 35.9027 26.4076 35.7586C25.0278 35.6144 23.7379 34.9717 22.7574 33.9396C21.7769 32.9075 21.1663 31.5498 21.0294 30.0973C20.8925 28.6448 21.2377 27.1872 22.0064 25.9724C22.7751 24.7576 23.9198 23.8606 25.2458 23.4338C26.5719 23.0071 27.9974 23.077 29.28 23.6316C29.261 23.4745 29.251 23.3163 29.25 23.1579C29.252 22.9444 29.2704 22.7314 29.305 22.5211C27.8112 21.9805 26.1877 21.9876 24.6983 22.5412C23.2088 23.0948 21.941 24.1625 21.101 25.5705C20.261 26.9786 19.8981 28.6444 20.0713 30.2971C20.2445 31.9498 20.9436 33.4922 22.055 34.6737L20.78 36.0158C20.6865 36.1163 20.6348 36.2518 20.6362 36.3924C20.6376 36.5331 20.692 36.6674 20.7875 36.7658C20.883 36.8642 21.0117 36.9187 21.1453 36.9172C21.2789 36.9157 21.4065 36.8584 21.5 36.7579L22.83 35.3579C24.0463 36.3267 25.5315 36.8475 27.0568 36.8399C28.582 36.8323 30.0625 36.2967 31.27 35.3158L32.64 36.7579C32.7357 36.8441 32.8587 36.8892 32.9845 36.8841C33.1104 36.879 33.2297 36.8241 33.3188 36.7303C33.4078 36.6366 33.46 36.5109 33.4649 36.3785C33.4697 36.246 33.4269 36.1165 33.345 36.0158L32 34.6211Z" fill="white"/>
<path d="M33 25.7895C34.3807 25.7895 35.5 24.6113 35.5 23.1579C35.5 21.7046 34.3807 20.5264 33 20.5264C31.6193 20.5264 30.5 21.7046 30.5 23.1579C30.5 24.6113 31.6193 25.7895 33 25.7895Z" fill="#FFFDFD"/>
<defs>
<clipPath id="clip0">
<rect width="40" height="42.1053" fill="white"/>
</clipPath>
</defs>
</svg>
