<svg width="45" height="45" viewBox="0 0 45 45" fill="none" xmlns="http://www.w3.org/2000/svg">
<path fill-rule="evenodd" clip-rule="evenodd" d="M13.2237 0.135C15.623 0.0245454 16.388 0 22.4998 0C28.6117 0 29.3767 0.0265909 31.7739 0.135C34.1712 0.243409 35.8076 0.625909 37.2394 1.18023C38.7387 1.74682 40.0989 2.6325 41.2239 3.77795C42.3694 4.90091 43.253 6.25909 43.8176 7.76045C44.3739 9.19227 44.7544 10.8286 44.8648 13.2218C44.9753 15.6252 44.9998 16.3902 44.9998 22.5C44.9998 28.6118 44.9733 29.3768 44.8648 31.7761C44.7564 34.1693 44.3739 35.8057 43.8176 37.2375C43.253 38.7391 42.3679 40.0995 41.2239 41.2241C40.0989 42.3695 38.7387 43.2532 37.2394 43.8177C35.8076 44.3741 34.1712 44.7545 31.778 44.865C29.3767 44.9755 28.6117 45 22.4998 45C16.388 45 15.623 44.9734 13.2237 44.865C10.8305 44.7566 9.19417 44.3741 7.76235 43.8177C6.26082 43.2531 4.90039 42.368 3.77576 41.2241C2.63108 40.1005 1.74526 38.7407 1.18007 37.2395C0.625757 35.8077 0.245302 34.1714 0.134847 31.7782C0.0243928 29.3748 -0.000152588 28.6098 -0.000152588 22.5C-0.000152588 16.3882 0.0264383 15.6232 0.134847 13.2259C0.243256 10.8286 0.625757 9.19227 1.18007 7.76045C1.7461 6.25926 2.63259 4.8995 3.7778 3.77591C4.90084 2.63148 6.2599 1.74568 7.7603 1.18023C9.19212 0.625909 10.8285 0.245455 13.2217 0.135H13.2237ZM31.5919 4.185C29.2192 4.07659 28.5073 4.05409 22.4998 4.05409C16.4923 4.05409 15.7805 4.07659 13.4078 4.185C11.213 4.28523 10.0226 4.65136 9.22894 4.96023C8.17962 5.36932 7.42894 5.85409 6.64144 6.64159C5.89494 7.36783 5.32044 8.25194 4.96007 9.22909C4.65121 10.0227 4.28507 11.2132 4.18485 13.408C4.07644 15.7807 4.05394 16.4925 4.05394 22.5C4.05394 28.5075 4.07644 29.2193 4.18485 31.592C4.28507 33.7868 4.65121 34.9773 4.96007 35.7709C5.32007 36.7466 5.89485 37.6323 6.64144 38.3584C7.36757 39.105 8.25326 39.6798 9.22894 40.0398C10.0226 40.3486 11.213 40.7148 13.4078 40.815C15.7805 40.9234 16.4903 40.9459 22.4998 40.9459C28.5094 40.9459 29.2192 40.9234 31.5919 40.815C33.7867 40.7148 34.9771 40.3486 35.7708 40.0398C36.8201 39.6307 37.5708 39.1459 38.3583 38.3584C39.1048 37.6323 39.6796 36.7466 40.0396 35.7709C40.3485 34.9773 40.7146 33.7868 40.8148 31.592C40.9233 29.2193 40.9458 28.5075 40.9458 22.5C40.9458 16.4925 40.9233 15.7807 40.8148 13.408C40.7146 11.2132 40.3485 10.0227 40.0396 9.22909C39.6305 8.17977 39.1458 7.42909 38.3583 6.64159C37.632 5.89515 36.7479 5.32066 35.7708 4.96023C34.9771 4.65136 33.7867 4.28523 31.5919 4.185V4.185ZM19.626 29.4361C21.231 30.1042 23.0181 30.1944 24.6822 29.6912C26.3463 29.1881 27.7841 28.1228 28.75 26.6773C29.7159 25.2318 30.15 23.4959 29.9781 21.7659C29.8063 20.0359 29.0392 18.4193 27.8078 17.192C27.0228 16.4076 26.0737 15.8069 25.0287 15.4333C23.9837 15.0596 22.8689 14.9223 21.7645 15.0313C20.6601 15.1402 19.5936 15.4926 18.6417 16.0632C17.6899 16.6338 16.8764 17.4083 16.2598 18.3311C15.6432 19.2538 15.2389 20.3017 15.0759 21.3995C14.9129 22.4972 14.9954 23.6174 15.3173 24.6795C15.6392 25.7415 16.1926 26.719 16.9377 27.5415C17.6827 28.364 18.6009 29.0111 19.626 29.4361ZM14.3221 14.3223C15.396 13.2484 16.671 12.3965 18.0741 11.8153C19.4772 11.2341 20.9811 10.9349 22.4998 10.9349C24.0186 10.9349 25.5225 11.2341 26.9256 11.8153C28.3287 12.3965 29.6037 13.2484 30.6776 14.3223C31.7515 15.3962 32.6034 16.6711 33.1846 18.0742C33.7658 19.4774 34.0649 20.9813 34.0649 22.5C34.0649 24.0187 33.7658 25.5226 33.1846 26.9258C32.6034 28.3289 31.7515 29.6038 30.6776 30.6777C28.5087 32.8466 25.5671 34.0651 22.4998 34.0651C19.4326 34.0651 16.491 32.8466 14.3221 30.6777C12.1533 28.5089 10.9348 25.5672 10.9348 22.5C10.9348 19.4328 12.1533 16.4911 14.3221 14.3223V14.3223ZM36.6298 12.6573C36.896 12.4062 37.109 12.1043 37.2564 11.7695C37.4037 11.4346 37.4824 11.0736 37.4877 10.7078C37.4931 10.342 37.425 9.97885 37.2874 9.63984C37.1499 9.30083 36.9457 8.99286 36.687 8.73417C36.4283 8.47548 36.1204 8.27132 35.7814 8.13379C35.4424 7.99625 35.0792 7.92813 34.7134 7.93346C34.3476 7.9388 33.9866 8.01747 33.6517 8.16483C33.3169 8.31219 33.015 8.52524 32.7639 8.79136C32.2757 9.30892 32.0084 9.99638 32.0188 10.7078C32.0292 11.4192 32.3164 12.0986 32.8195 12.6017C33.3226 13.1048 34.002 13.3921 34.7134 13.4024C35.4248 13.4128 36.1123 13.1455 36.6298 12.6573V12.6573Z" fill="#F2802B"/>
</svg>
