<svg width="220" height="41" viewBox="0 0 220 41" fill="none" xmlns="http://www.w3.org/2000/svg">
<path d="M50.9294 33.7479V17.3963H56.657C58.641 17.3963 60.1459 17.7782 61.1716 18.5418C62.1973 19.298 62.7102 20.4098 62.7102 21.8773C62.7102 22.6784 62.5043 23.3859 62.0925 23.9998C61.6807 24.6063 61.108 25.0518 60.3743 25.3363C61.2128 25.5459 61.8717 25.9689 62.3508 26.6053C62.8375 27.2417 63.0808 28.0204 63.0808 28.9413C63.0808 30.5135 62.5792 31.7039 61.5759 32.5125C60.5727 33.3211 59.1427 33.7329 57.2859 33.7479H50.9294ZM54.2986 26.6278V31.0414H57.1848C57.9784 31.0414 58.5961 30.8542 59.0378 30.4798C59.4871 30.098 59.7117 29.5739 59.7117 28.9076C59.7117 27.4102 58.9368 26.6502 57.387 26.6278H54.2986ZM54.2986 24.2469H56.7917C58.4913 24.217 59.3411 23.5394 59.3411 22.2142C59.3411 21.473 59.1239 20.9414 58.6897 20.6195C58.2629 20.29 57.5854 20.1253 56.657 20.1253H54.2986V24.2469ZM68.988 31.0414H76.1418V33.7479H65.6189V17.3963H68.988V31.0414ZM87.5408 30.3788H81.6335L80.5105 33.7479H76.928L83.0149 17.3963H86.137L92.2576 33.7479H88.675L87.5408 30.3788ZM82.5432 27.6497H86.6311L84.5759 21.5291L82.5432 27.6497ZM106.374 28.3011C106.247 30.0606 105.596 31.4456 104.42 32.4564C103.252 33.4671 101.71 33.9725 99.7932 33.9725C97.6969 33.9725 96.046 33.2687 94.8406 31.8612C93.6427 30.4461 93.0437 28.507 93.0437 26.0438V25.0443C93.0437 23.472 93.3207 22.0869 93.8748 20.889C94.4288 19.6911 95.2187 18.7739 96.2444 18.1375C97.2776 17.4937 98.4755 17.1717 99.8381 17.1717C101.725 17.1717 103.245 17.6771 104.398 18.6878C105.551 19.6986 106.217 21.1174 106.397 22.9442H103.028C102.945 21.8885 102.649 21.1248 102.14 20.6532C101.639 20.174 100.871 19.9344 99.8381 19.9344C98.7151 19.9344 97.8728 20.3387 97.3113 21.1473C96.7572 21.9484 96.4727 23.195 96.4578 24.8871V26.1224C96.4578 27.8893 96.7236 29.1808 97.2551 29.9969C97.7942 30.813 98.6402 31.221 99.7932 31.221C100.834 31.221 101.609 30.9852 102.118 30.5135C102.635 30.0344 102.93 29.2969 103.005 28.3011H106.374ZM113.708 27.1893L111.956 29.076V33.7479H108.587V17.3963H111.956V24.8084L113.438 22.7757L117.605 17.3963H121.749L115.943 24.6624L121.917 33.7479H117.908L113.708 27.1893ZM128.914 33.7479V17.3963H133.945C135.383 17.3963 136.667 17.722 137.797 18.3734C138.935 19.0173 139.822 19.9382 140.459 21.1361C141.095 22.3265 141.413 23.6817 141.413 25.2015V25.9539C141.413 27.4738 141.099 28.8252 140.47 30.0081C139.849 31.1911 138.969 32.1082 137.831 32.7596C136.693 33.411 135.409 33.7404 133.979 33.7479H128.914ZM132.283 20.1253V31.0414H133.911C135.229 31.0414 136.236 30.6109 136.932 29.7498C137.629 28.8888 137.984 27.6572 137.999 26.055V25.1903C137.999 23.5282 137.655 22.2704 136.966 21.4168C136.277 20.5558 135.27 20.1253 133.945 20.1253H132.283ZM152.857 30.3788H146.95L145.827 33.7479H142.244L148.331 17.3963H151.453L157.574 33.7479H153.991L152.857 30.3788ZM147.86 27.6497H151.948L149.892 21.5291L147.86 27.6497ZM170.062 20.1253H165.053V33.7479H161.684V20.1253H156.743V17.3963H170.062V20.1253ZM175.576 33.7479H172.207V17.3963H175.576V33.7479ZM192.007 33.7479H188.637L182.079 22.9891V33.7479H178.71V17.3963H182.079L188.649 28.1776V17.3963H192.007V33.7479ZM207.886 31.6815C207.28 32.4077 206.423 32.973 205.315 33.3773C204.207 33.7741 202.979 33.9725 201.631 33.9725C200.216 33.9725 198.973 33.6655 197.903 33.0516C196.839 32.4302 196.016 31.5317 195.432 30.3563C194.855 29.1808 194.56 27.7995 194.545 26.2122V25.1004C194.545 23.4683 194.818 22.057 195.365 20.8665C195.919 19.6686 196.712 18.7552 197.745 18.1263C198.786 17.4899 200.003 17.1717 201.395 17.1717C203.334 17.1717 204.851 17.6359 205.944 18.5643C207.037 19.4852 207.684 20.8291 207.886 22.596H204.607C204.457 21.6602 204.124 20.9751 203.608 20.5409C203.099 20.1066 202.395 19.8895 201.496 19.8895C200.351 19.8895 199.479 20.32 198.88 21.181C198.281 22.042 197.977 23.3223 197.97 25.0218V26.0663C197.97 27.7808 198.296 29.076 198.947 29.952C199.598 30.828 200.553 31.266 201.811 31.266C203.076 31.266 203.978 30.9964 204.517 30.4574V27.6385H201.451V25.1566H207.886V31.6815Z" fill="white"/>
<path d="M20.4999 22.2133C33.6186 13.9053 33.049 6.64688 33.049 6.64688C33.049 2.97594 29.9987 0 26.2359 0C23.8278 0 21.7116 1.21891 20.4999 3.05875C19.2883 1.21891 17.1721 0 14.7639 0C11.0012 0 7.9509 2.97594 7.9509 6.64688C7.9509 6.64688 7.38131 13.9053 20.4999 22.2133V22.2133Z" fill="#F2802B"/>
<path d="M9.17119 20.8281L8.21609 21.7599C7.21952 22.7322 7.21952 24.3085 8.21609 25.2808L10.1312 27.1492L8.43255 28.8065L3.854 24.3396L3.90261 18.8755C3.90261 17.5005 2.76013 16.3859 1.35076 16.3859H0V25.5734L7.59877 33.3775C9.59192 35.322 12.8234 35.322 14.8165 33.3775C16.8097 31.433 16.8097 28.2803 14.8165 26.3358L9.17119 20.8281Z" fill="#F2802B"/>
<path d="M7.80518 36.3877V40H16.3114V35.2257C14.9192 36.4876 13.1181 37.1796 11.2077 37.1796C10.0053 37.1796 8.84635 36.9054 7.80518 36.3877V36.3877Z" fill="#F2802B"/>
<path d="M39.6493 16.3859C38.2399 16.3859 37.0975 17.5006 37.0975 18.8755L37.146 24.3395L32.5674 28.8064L30.8687 27.1492L32.7839 25.2807C33.7805 24.3084 33.7805 22.7321 32.7839 21.7599L31.8288 20.8281L26.1835 26.3358C24.1903 28.2803 24.1903 31.433 26.1835 33.3775C28.1766 35.322 31.4081 35.322 33.4012 33.3775L41 25.5734V16.3859H39.6493Z" fill="#F2802B"/>
<path d="M24.6886 35.2257V40H33.1948V36.3877C32.1536 36.9053 30.9947 37.1796 29.7923 37.1796C27.8819 37.1796 26.0807 36.4876 24.6886 35.2257Z" fill="#F2802B"/>
</svg>
