<svg width="45" height="43" viewBox="0 0 45 43" fill="none" xmlns="http://www.w3.org/2000/svg">
<path d="M9.77869 23.5551V34.073C9.77869 34.073 16.5416 29.8713 22.538 29.8713C28.5343 29.8713 35.2987 34.073 35.2987 34.073V23.4083C35.2987 23.4083 28.8466 18.3192 22.4381 18.3192C16.0324 18.315 9.77869 23.5551 9.77869 23.5551Z" fill="#F2802B"/>
<path d="M42.4625 21.0505L45 19.0158L42.4625 16.9201V15.9258C42.4625 15.9258 43.177 10.5221 39.1162 13.3477C38.9094 13.5156 38.7983 13.6855 38.7533 13.8512L22.0063 0L0 18.7829L8.3102 24.4132V22.5861C8.3102 22.5861 15.2827 16.7481 22.4297 16.7481C29.5752 16.7481 36.7672 22.4224 36.7672 22.4224V25.6131L41.3555 21.9379C41.3555 26.1941 41.3555 35.2982 41.3555 36.8169H39.8279V42.1053L41.8591 40.0118L44.1138 42.1053V36.8148H42.4625V21.0505V21.0505ZM41.3541 15.007C41.3541 15.135 41.3541 15.4874 41.3541 16.0034L40.015 14.8958C40.5031 14.4134 41.3541 13.7442 41.3541 15.007ZM40.9012 20.8429C40.309 20.8429 39.8265 20.1275 39.8265 19.2444C39.8265 18.3613 40.309 17.6439 40.9012 17.6439C41.4947 17.6439 41.9744 18.3613 41.9744 19.2444C41.9744 20.1275 41.4947 20.8429 40.9012 20.8429Z" fill="#F2802B"/>
</svg>
