<svg width="47" height="45" viewBox="0 0 47 45" fill="none" xmlns="http://www.w3.org/2000/svg">
<path d="M47 5.33782C45.2716 6.23984 43.4149 6.84932 41.4629 7.1248C43.477 5.70544 44.9838 3.47153 45.7022 0.839901C43.8099 2.16365 41.7389 3.09543 39.5793 3.59473C38.127 1.76841 36.2033 0.5579 34.107 0.151131C32.0107 -0.255637 29.859 0.164095 27.986 1.34516C26.113 2.52623 24.6235 4.40255 23.7487 6.68282C22.8739 8.96309 22.6628 11.5197 23.1481 13.9558C19.3139 13.7291 15.5631 12.5553 12.139 10.5108C8.71489 8.46628 5.69407 5.59663 3.27257 2.0881C2.4446 3.77025 1.96851 5.72057 1.96851 7.79766C1.96759 9.66752 2.35855 11.5087 3.10672 13.1579C3.8549 14.8072 4.93713 16.2134 6.25742 17.2518C4.72624 17.1944 3.22884 16.7072 1.88985 15.8305V15.9768C1.8897 18.5994 2.65994 21.1412 4.06988 23.171C5.47981 25.2009 7.44261 26.5937 9.62521 27.1131C8.20478 27.5659 6.71558 27.6326 5.27006 27.3082C5.88586 29.5647 7.08539 31.538 8.70071 32.9517C10.316 34.3654 12.2663 35.1489 14.2784 35.1923C10.8627 38.3504 6.64427 40.0635 2.30177 40.0559C1.53254 40.0562 0.763965 40.0033 0 39.8975C4.40788 43.2354 9.53898 45.0069 14.7794 45C32.5187 45 42.2164 27.6958 42.2164 12.6881C42.2164 12.2005 42.206 11.708 42.1874 11.2205C44.0737 9.61383 45.702 7.62432 46.9959 5.34514L47 5.33782V5.33782Z" fill="#F2802B"/>
</svg>
