<svg width="45" height="43" viewBox="0 0 45 43" fill="none" xmlns="http://www.w3.org/2000/svg">
<g clip-path="url(#clip0)">
<path d="M36.8007 32.9319C39.1083 34.4498 40.427 37.1556 40.2621 39.8614C40.1523 41.5113 40.0973 41.5773 38.3391 41.8413C37.2402 42.0393 30.3172 42.1053 23.1744 42.1053C15.0976 42.1053 6.63618 41.9073 6.03179 41.7093C3.61424 40.9834 4.93291 35.7037 8.11968 33.1959C10.5922 31.282 15.6471 28.3782 17.0207 28.0482C18.8888 27.5862 19.1086 26.2003 17.0207 21.7126C16.5262 20.7227 15.9767 17.6869 15.9218 14.5191C15.8668 9.37143 16.691 5.87366 20.4272 4.15777C21.1964 3.82779 21.9657 3.6958 22.6799 3.6958C25.1524 3.6958 27.4601 5.34569 28.3942 7.78753C29.7678 11.0213 29.2183 19.6668 27.7898 22.7686C26.1414 26.2663 26.3063 27.3883 28.1194 27.9822C29.3282 28.3782 33.0644 30.4901 36.8007 32.9319ZM6.9109 30.952C6.03179 31.678 5.20763 32.6019 4.54829 33.5259C2.46041 33.5259 0.867021 33.4599 0.702188 33.3939C-0.671422 32.9979 0.0977994 29.9621 1.91096 28.6422C3.28457 27.5862 6.08674 25.9364 6.85596 25.7384C7.84496 25.4744 8.06474 24.7484 6.85596 22.2406C6.58124 21.7126 6.25157 19.9967 6.25157 18.2149C6.19663 15.311 6.69113 13.3312 8.77901 12.4732C10.5372 11.6813 12.5152 12.6712 13.2295 14.4531C13.9438 16.301 13.5592 21.0527 12.79 22.7686C11.9108 24.8144 12.0757 25.3424 13.0647 25.6724C13.2845 25.7384 13.724 26.0024 14.3284 26.3323C11.9108 27.5203 8.61418 29.6981 6.9109 30.952ZM43.0643 28.4442C44.383 29.3021 45.0973 30.754 44.9874 32.2719C44.9324 33.1959 44.9324 33.2619 43.9434 33.3939C43.6687 33.4599 42.405 33.5259 40.7566 33.5259C40.0424 32.4039 39.0534 31.348 37.8446 30.622C35.5919 29.0382 32.8447 27.3223 30.8117 26.2663C31.3612 26.0024 31.8557 25.8044 32.0754 25.7384C33.1194 25.4744 33.2842 24.7484 32.0754 22.2406C31.8557 21.7126 31.471 19.9967 31.471 18.2149C31.4161 15.311 31.8557 13.3312 33.9435 12.4732C35.7567 11.6813 37.7347 12.6712 38.394 14.4531C39.1083 16.301 38.8336 21.0527 38.0644 22.7686C37.1853 24.8144 37.2952 25.3424 38.2292 25.6724C38.8885 25.9364 40.9764 27.1243 43.0643 28.4442Z" fill="#F2802B"/>
</g>
<defs>
<clipPath id="clip0">
<rect width="45" height="42.1053" fill="white"/>
</clipPath>
</defs>
</svg>
