<?xml version="1.0" encoding="utf-8"?><svg xmlns="http://www.w3.org/2000/svg" xmlns:xlink="http://www.w3.org/1999/xlink"><symbol viewBox="-110 1 511 512" id="facebook" xmlns="http://www.w3.org/2000/svg"><path d="M180 512H98.008c-13.695 0-24.836-11.14-24.836-24.836V302.227H25.336C11.64 302.227.5 291.082.5 277.39v-79.246c0-13.696 11.14-24.836 24.836-24.836h47.836v-39.684c0-39.348 12.355-72.824 35.726-96.805C132.375 12.73 165.184 0 203.778 0l62.53.102c13.672.023 24.794 11.164 24.794 24.835v73.579c0 13.695-11.137 24.836-24.829 24.836l-42.101.015c-12.84 0-16.11 2.574-16.809 3.363-1.152 1.31-2.523 5.008-2.523 15.223v31.352h58.27c4.386 0 8.636 1.082 12.288 3.12 7.88 4.403 12.778 12.727 12.778 21.723l-.031 79.247c0 13.687-11.141 24.828-24.836 24.828h-58.47v184.941C204.84 500.86 193.696 512 180 512zm-76.813-30.016h71.633V288.79c0-9.144 7.442-16.582 16.582-16.582h66.727l.027-68.883h-66.758c-9.14 0-16.578-7.437-16.578-16.582v-44.789c0-11.726 1.192-25.062 10.043-35.086 10.696-12.117 27.551-13.515 39.301-13.515l36.922-.016V30.109l-57.332-.093c-62.024 0-100.566 39.703-100.566 103.609v53.117c0 9.14-7.438 16.582-16.579 16.582H30.516v68.883h56.093c9.141 0 16.579 7.438 16.579 16.582zM266.25 30.117h.004zm0 0"/></symbol><symbol viewBox="0 0 51.148 51.148" id="google-plus" xmlns="http://www.w3.org/2000/svg"><path d="M22.82 34.793a9.56 9.56 0 00-.995-.047c-.23-.019-.662-.018-1.829.091a19.27 19.27 0 00-2.873.647c-.221.084-.53.212-.959.393a6.688 6.688 0 00-1.427.916 5.402 5.402 0 00-1.179 1.513c-.394.682-.595 1.496-.595 2.418 0 1.804.813 3.3 2.396 4.431 1.434 1.079 3.379 1.641 5.809 1.67 2.191-.03 3.918-.545 5.131-1.53l.005-.003c1.249-1.025 1.883-2.363 1.883-3.975 0-1.309-.434-2.465-1.324-3.473-.784-.803-1.955-1.744-3.577-2.876a1.012 1.012 0 00-.466-.175zm3.366 6.524c0 .997-.376 1.791-1.149 2.426-.855.694-2.167 1.058-3.871 1.082-1.969-.023-3.518-.45-4.624-1.282-1.061-.759-1.578-1.681-1.578-2.818 0-.567.109-1.044.344-1.45a3.49 3.49 0 01.725-.958c.334-.272.659-.481.938-.609.371-.157.659-.276.795-.331a17.39 17.39 0 012.464-.554c.811-.075 1.178-.087 1.328-.087.062 0 .087.002.094.002.256.033.498.01.709.023 1.387.979 2.418 1.811 3.038 2.442.529.604.787 1.296.787 2.114z"/><path d="M34.574 5.265H23.049c-1.585 0-3.307.187-5.144.561-1.911.446-3.766 1.402-5.576 2.897-2.576 2.491-3.882 5.324-3.882 8.42 0 2.599.943 4.903 2.764 6.804 1.794 2.112 4.406 3.205 7.776 3.247.134 0 .271-.002.411-.006a4.75 4.75 0 00-.128 1.154c0 1.037.243 1.949.683 2.639.069.133.141.266.215.396a57.478 57.478 0 00-3.457.416 19.03 19.03 0 00-6.225 2.259c-1.827 1.09-3.117 2.394-3.826 3.862-.721 1.443-1.086 2.793-1.086 4.012 0 2.502 1.144 4.664 3.368 6.402 2.164 1.831 5.421 2.779 9.703 2.819 5.042-.079 8.981-1.325 11.711-3.704 2.681-2.343 4.04-5.094 4.04-8.193-.039-2.166-.554-3.962-1.551-5.367a20.773 20.773 0 00-3.358-3.461l-1.916-1.569a11.326 11.326 0 01-.8-.909c-.118-.131-.274-.36-.274-.823 0-.404.105-.744.354-1.085.261-.4.541-.757.771-1.001a54.793 54.793 0 001.77-1.611 16.759 16.759 0 001.456-1.769c.991-1.401 1.513-3.254 1.549-5.525l.001-.375c.004-.859.006-1.333-.277-2.271-.391-1.069-.76-1.896-1.328-2.485l-.026-.026h.975a1 1 0 00.795-.393l2.834-3.708c.23-.302.271-.709.102-1.051a1.008 1.008 0 00-.899-.556zm-3.328 3.709h-3.062a.994.994 0 00-.949.722c-.126.424.053.887.424 1.128.225.146 1.062.956 1.419 1.302l.305.292c.353.368.707 1.338.84 1.697.18.598.179.838.175 1.633l-.001.367c-.029 1.844-.427 3.32-1.179 4.381a14.686 14.686 0 01-1.239 1.515 64.317 64.317 0 01-1.733 1.577 8.832 8.832 0 00-1.039 1.313c-.471.642-.709 1.389-.709 2.222 0 .85.264 1.576.747 2.113.312.392.63.751.945 1.067.023.023.049.046.074.067l1.956 1.602a18.73 18.73 0 013.016 3.098c.739 1.042 1.13 2.461 1.161 4.2 0 2.513-1.098 4.695-3.355 6.668-2.362 2.059-5.87 3.14-10.401 3.211-3.779-.036-6.607-.825-8.436-2.371-1.769-1.383-2.63-2.97-2.63-4.851 0-.906.295-1.955.881-3.13.542-1.122 1.57-2.14 3.04-3.017a16.978 16.978 0 015.531-2.012c1.98-.292 3.646-.458 4.951-.496a1 1 0 00.767-1.606 11.847 11.847 0 01-1.059-1.68c-.279-.443-.415-.981-.415-1.644 0-.366.047-.669.163-.945.122-.354.238-.678.346-.974a1 1 0 00-1.05-1.335 15.8 15.8 0 01-1.729.106c-2.793-.035-4.842-.867-6.305-2.585-1.513-1.582-2.248-3.37-2.248-5.466 0-2.568 1.07-4.852 3.213-6.929 1.51-1.244 3.091-2.064 4.672-2.434 1.679-.341 3.266-.515 4.717-.515h9.503l-1.307 1.709z"/><path d="M20.16 10.298c-1.365.033-2.516.588-3.418 1.651a1.12 1.12 0 00-.065.085 5.884 5.884 0 00-1.033 3.507c0 1.594.464 3.26 1.388 4.967a7.123 7.123 0 001.826 2.134c.819.644 1.769.97 2.819.97h.037c1.306-.049 2.411-.529 3.286-1.426.043-.044.082-.093.117-.144a5.18 5.18 0 00.809-1.995c.06-.56.092-1.046.092-1.445 0-1.714-.44-3.455-1.302-5.167a6.297 6.297 0 00-1.792-2.231c-.789-.569-1.7-.873-2.764-.906zm3.858 8.304c0 .327-.027.741-.07 1.159-.065.363-.215.73-.444 1.094-.496.478-1.101.727-1.845.758a2.472 2.472 0 01-1.567-.544 5.132 5.132 0 01-1.309-1.526c-.756-1.396-1.139-2.743-1.139-4.024a3.882 3.882 0 01.657-2.314c.523-.599 1.13-.887 1.851-.906.612.019 1.136.192 1.571.505.491.384.894.893 1.202 1.522.726 1.438 1.093 2.877 1.093 4.276zM45.574 3h-3V0h-2v3h-3v2h3v3h2V5h3z"/></symbol><symbol viewBox="0 0 48 48" id="instagram" xmlns="http://www.w3.org/2000/svg"><path d="M40.4 5.5h-4.8A2.602 2.602 0 0033 8.1v4.8c0 1.434 1.166 2.6 2.6 2.6h4.8c1.434 0 2.6-1.166 2.6-2.6V8.1c0-1.434-1.166-2.6-2.6-2.6zm.6 7.4a.6.6 0 01-.6.6h-4.8a.6.6 0 01-.6-.6V8.1a.6.6 0 01.6-.6h4.8a.6.6 0 01.6.6v4.8z"/><path d="M37.8.5H10.2C4.576.5 0 5.089 0 10.731V37.27C0 42.911 4.576 47.5 10.2 47.5h27.6c5.624 0 10.2-4.589 10.2-10.23V10.731C48 5.089 43.424.5 37.8.5zM46 37.27c0 4.538-3.679 8.23-8.2 8.23H10.2c-4.522 0-8.2-3.692-8.2-8.23V19.5h12.221A13.948 13.948 0 0010 29.5c0 7.72 6.28 14 14 14s14-6.28 14-14c0-3.916-1.62-7.457-4.221-10H46v17.77zM36 29.5c0 6.617-5.383 12-12 12s-12-5.383-12-12 5.383-12 12-12 12 5.383 12 12zm-4.826-12c-2.101-1.261-4.55-2-7.174-2s-5.073.739-7.174 2H2v-6.769C2 6.192 5.679 2.5 10.2 2.5h27.6c4.521 0 8.2 3.692 8.2 8.231V17.5H31.174z"/><path d="M15 29.5c0 4.962 4.037 9 9 9s9-4.038 9-9-4.037-9-9-9-9 4.038-9 9zm16 0c0 3.86-3.141 7-7 7s-7-3.14-7-7 3.141-7 7-7 7 3.14 7 7z"/></symbol><symbol viewBox="0 0 492 492" id="left-arrow" xmlns="http://www.w3.org/2000/svg"><path d="M198.608 246.104L382.664 62.04c5.068-5.056 7.856-11.816 7.856-19.024 0-7.212-2.788-13.968-7.856-19.032l-16.128-16.12C361.476 2.792 354.712 0 347.504 0s-13.964 2.792-19.028 7.864L109.328 227.008c-5.084 5.08-7.868 11.868-7.848 19.084-.02 7.248 2.76 14.028 7.848 19.112l218.944 218.932c5.064 5.072 11.82 7.864 19.032 7.864 7.208 0 13.964-2.792 19.032-7.864l16.124-16.12c10.492-10.492 10.492-27.572 0-38.06L198.608 246.104z"/></symbol><symbol viewBox="0 0 39.474 39.474" id="letter" xmlns="http://www.w3.org/2000/svg"><path d="M38.347 4.825c.619 0 1.127.508 1.127 1.127v27.571c0 .619-.508 1.127-1.127 1.127H1.111A1.12 1.12 0 010 33.522V5.952c0-.619.492-1.127 1.111-1.127h37.236zM19.729 20.348l8.444-7.301 6.904-5.984H4.381l6.904 5.984 8.444 7.301zm9.904-5.619l-9.158 7.936a1.132 1.132 0 01-1.476.016l-9.174-7.952-7.587-6.571v23.158l7.587-6.587 4.254-3.667a1.095 1.095 0 011.571.111c.413.46.349 1.175-.111 1.571l-4.254 3.682-6.904 5.968h30.697l-6.904-5.968-4.254-3.682a1.123 1.123 0 01-.111-1.571 1.096 1.096 0 011.571-.111l4.254 3.667 7.603 6.587V8.158l-7.604 6.571z"/></symbol><symbol viewBox="0 0 512 512" id="location" xmlns="http://www.w3.org/2000/svg"><path d="M446.812 493.966l-67.499-142.781a12.633 12.633 0 00-6.48-6.223l-33.58-14.949 58.185-97.518c.139-.234.27-.471.395-.713 11.568-22.579 17.434-46.978 17.434-72.515 0-42.959-16.846-83.233-47.435-113.402C337.248 15.703 296.73-.588 253.745.016c-41.748.579-81.056 17.348-110.685 47.22-29.626 29.87-46.078 69.313-46.326 111.066-.152 25.515 5.877 50.923 17.431 73.479.124.241.255.479.394.713l58.184 97.517-33.774 15.031a12.626 12.626 0 00-6.285 6.142L65.187 493.966a12.635 12.635 0 0016.56 16.941l84.558-37.646 84.558 37.646a12.644 12.644 0 0010.277 0l84.558-37.646 84.558 37.646a12.63 12.63 0 0016.556-16.941zm-310.339-274.06c-9.73-19.132-14.599-39.805-14.47-61.453.428-72.429 59.686-132.17 132.094-133.173 36.166-.486 70.263 13.199 95.993 38.576 25.738 25.383 39.911 59.267 39.911 95.412 0 21.359-4.869 41.757-14.473 60.638L266.85 402.054c-3.318 5.56-8.692 6.16-10.849 6.16-2.158 0-7.532-.6-10.849-6.16L136.473 219.906zm214.361 227.985a12.644 12.644 0 00-10.277 0l-84.558 37.646-84.558-37.646a12.644 12.644 0 00-10.277 0l-58.578 26.08 50.938-107.749 32.258-14.356 37.668 63.133c6.904 11.572 19.072 18.481 32.547 18.481 13.475 0 25.643-6.909 32.547-18.48l37.668-63.133 32.261 14.361 50.935 107.744-58.574-26.081z"/><path d="M256.004 101.607c-31.794 0-57.659 25.865-57.659 57.658s25.865 57.658 57.659 57.658c31.793.001 57.658-25.865 57.658-57.658s-25.865-57.658-57.658-57.658zm0 90.05c-17.861.001-32.393-14.529-32.393-32.392 0-17.861 14.531-32.392 32.393-32.392 17.861 0 32.392 14.531 32.392 32.392s-14.531 32.392-32.392 32.392z"/></symbol><symbol viewBox="0 0 451.847 451.846" id="navigate-up-arrow" xmlns="http://www.w3.org/2000/svg"><path d="M248.292 106.406l194.281 194.29c12.365 12.359 12.365 32.391 0 44.744-12.354 12.354-32.391 12.354-44.744 0L225.923 173.529 54.018 345.44c-12.36 12.354-32.395 12.354-44.748 0-12.359-12.354-12.359-32.391 0-44.75L203.554 106.4c6.18-6.174 14.271-9.259 22.369-9.259 8.095 0 16.192 3.091 22.369 9.265z"/></symbol><symbol viewBox="0 0 512 512" id="phone-call" xmlns="http://www.w3.org/2000/svg"><path d="M492.557 400.56L392.234 300.238c-11.976-11.975-31.458-11.975-43.435 0l-26.088 26.088c-8.174 8.174-10.758 19.845-7.773 30.241l-9.843 9.843-.008.008c-6.99 6.998-50.523-3.741-103.145-56.363-52.614-52.613-63.356-96.139-56.366-103.142 0-.002.002-.002.002-.002l9.852-9.851a30.876 30.876 0 008.523 1.207c7.865 0 15.729-2.993 21.718-8.98l26.088-26.088c11.975-11.975 11.975-31.458 0-43.434L111.436 19.441c-5.8-5.8-13.513-8.994-21.716-8.994-8.205 0-15.915 3.196-21.716 8.994l-26.09 26.09c-8.174 8.174-10.758 19.846-7.773 30.241 0 0-8.344 8.424-8.759 8.956-27.753 30.849-32.96 79.418-14.561 137.487 18.017 56.857 56.857 117.088 109.367 169.595 52.508 52.508 112.739 91.348 169.596 109.367 22.84 7.237 44.207 10.823 63.61 10.823 31.813 0 58.337-9.648 77.35-28.66l5.474-5.474a30.83 30.83 0 008.532 1.213c8.205 0 15.917-3.196 21.716-8.994l26.09-26.09c11.975-11.975 11.975-31.459.001-43.435zM89.72 41.157l100.324 100.325-26.074 26.102-.014-.014-.375-.375-49.787-49.787-50.163-50.161 26.089-26.09zm319.309 420.466l-.005.005c-22.094 22.091-61.146 25.74-109.961 10.27-52.252-16.558-108.065-52.714-157.156-101.806C92.814 321 56.658 265.189 40.101 212.936c-15.47-48.817-11.821-87.87 10.275-109.967l.002-.002 2.77-2.77 77.857 77.856-7.141 7.141-.015.017c-29.585 29.622 5.963 96.147 56.378 146.562 37.734 37.734 84.493 67.14 118.051 67.14 11.284 0 21.076-3.325 28.528-10.778l.008-.008 7.133-7.133 77.857 77.856-2.775 2.773zm35.723-13.255L344.428 348.044l26.088-26.088L470.84 422.278s-26.079 26.099-26.088 26.09zm-55.934-325.184c-29.209-29.209-68.042-45.294-109.344-45.293-8.481 0-15.356 6.875-15.356 15.356s6.876 15.356 15.356 15.356c33.1-.002 64.219 12.89 87.628 36.297 23.406 23.406 36.295 54.525 36.294 87.624 0 8.481 6.875 15.358 15.356 15.358 8.48 0 15.356-6.875 15.356-15.354.001-41.304-16.085-80.135-45.29-109.344z"/><path d="M443.895 68.107C399.972 24.186 341.578-.002 279.468 0c-8.481 0-15.356 6.876-15.356 15.356 0 8.481 6.876 15.356 15.356 15.356 53.907-.002 104.588 20.992 142.709 59.111 38.118 38.118 59.111 88.799 59.11 142.706 0 8.481 6.875 15.356 15.356 15.356 8.48 0 15.356-6.875 15.356-15.354.002-62.112-24.186-120.504-68.104-164.424zM333.737 178.26c-14.706-14.706-33.465-22.477-54.256-22.477h-.006c-8.481.002-15.356 6.876-15.354 15.358.002 8.481 6.878 15.356 15.358 15.354h.005c12.644 0 23.593 4.536 32.539 13.481 8.819 8.82 13.481 20.075 13.479 32.544-.002 8.481 6.875 15.356 15.354 15.358h.002c8.481 0 15.354-6.875 15.356-15.354.001-20.792-7.77-39.556-22.477-54.264z"/></symbol><symbol viewBox="0 0 50.141 50.141" id="pinterest" xmlns="http://www.w3.org/2000/svg"><path d="M44.092 12.485c-.76-2.567-1.98-4.728-3.732-6.606-1.713-1.837-3.684-3.23-6.026-4.259C31.666.451 28.573-.117 25.618.02c-1.078.049-2.131.106-3.163.255-2.908.416-5.469 1.283-7.828 2.65-3.011 1.748-5.362 4.124-6.987 7.064-.844 1.53-1.675 4.228-2.028 5.99-.418 2.078-.05 5.681.789 7.713 1.048 2.533 1.91 3.656 4.013 5.223.013.009 1.313.945 2.179.931 1.577-.03 1.891-1.539 2.041-2.264.028-.137.056-.272.089-.399.029-.112.067-.232.106-.357.223-.72.526-1.706.023-2.58a4.933 4.933 0 00-.61-.807c-.107-.122-.215-.24-.302-.37-.748-1.111-1.127-2.501-1.127-4.131 0-2.139.484-4.077 1.481-5.923 1.808-3.349 4.808-5.462 8.677-6.114 2.202-.369 4.768-.214 6.693.402 1.759.564 3.256 1.561 4.33 2.886 1.137 1.402 1.787 3.18 1.931 5.286.094 1.344-.028 2.698-.129 3.597-.389 3.461-1.396 6.247-2.994 8.282-1.309 1.67-2.72 2.507-4.315 2.561-1.027.04-1.795-.17-2.489-.667-.655-.467-1.045-1.043-1.229-1.81-.208-.876.043-1.784.31-2.746l.043-.154c.233-.846.477-1.619.716-2.38.376-1.199.766-2.438 1.087-3.876.363-1.623.411-2.934.148-4.005-.324-1.33-1.039-2.326-2.125-2.962-1.149-.67-2.777-.799-4.144-.329-2.037.695-3.591 2.545-4.264 5.075a11 11 0 00-.293 4.006c.113 1.076.354 2.054.799 3.235l-.047.157a6.557 6.557 0 00-.083.294c-.479 2-.945 3.972-1.41 5.94-.441 1.869-.883 3.735-1.334 5.62l-.102.422c-.462 1.92-.938 3.906-1.049 6.277l-.05.99c-.098 1.842-.197 3.747.05 5.509.049.344.157 1.115.916 1.384.227.17.445.242.657.242.635 0 1.2-.645 1.681-1.192 1.569-1.784 2.903-4.037 4.079-6.885.526-1.274.875-2.645 1.212-3.971l.203-.79c.246-.944.487-1.901.726-2.848l.016-.063c.443.388.955.738 1.548 1.063 1.255.695 2.671 1.1 4.207 1.203 1.44.098 2.956-.087 4.629-.567a13.645 13.645 0 003.617-1.636c4.054-2.596 6.817-7.137 7.781-12.786.289-1.688.412-3.045.412-4.537-.002-1.718-.207-3.282-.613-4.643zm-1.772 8.847c-.869 5.088-3.315 9.15-6.889 11.438a11.66 11.66 0 01-3.09 1.398c-1.446.416-2.738.577-3.942.495-1.261-.085-2.364-.398-3.379-.96-1.015-.555-1.673-1.158-2.135-1.955l-1.226-2.118-1.105 4.337c-.237.941-.477 1.893-.722 2.832l-.205.802c-.335 1.315-.65 2.558-1.123 3.7-1.053 2.552-2.229 4.571-3.589 6.163-.106-1.355-.026-2.875.052-4.352l.051-1.002c.101-2.182.556-4.073.995-5.902l.103-.425c.451-1.886.893-3.755 1.335-5.625.465-1.967.93-3.937 1.408-5.932.014-.056.034-.122.055-.191.12-.403.245-.82.076-1.243-.429-1.099-.655-1.976-.756-2.932a9.011 9.011 0 01.238-3.282c.498-1.873 1.583-3.22 2.979-3.696a3.257 3.257 0 011.056-.169c.567 0 1.093.136 1.431.333.607.356.997.914 1.19 1.71.185.756.133 1.797-.156 3.094-.304 1.355-.663 2.5-1.044 3.713a69.946 69.946 0 00-.735 2.446l-.042.152c-.308 1.109-.656 2.366-.328 3.744.298 1.248.956 2.22 2.011 2.974 1.048.749 2.278 1.084 3.72 1.039 2.191-.074 4.149-1.193 5.821-3.325 1.831-2.332 2.978-5.458 3.409-9.295.108-.978.241-2.452.137-3.957-.174-2.524-.972-4.68-2.373-6.408-1.319-1.627-3.143-2.848-5.273-3.531-2.211-.709-5.137-.891-7.635-.471-4.5.758-7.994 3.225-10.106 7.136-1.158 2.146-1.721 4.394-1.721 6.873 0 2.036.493 3.801 1.467 5.247.134.2.294.386.46.574.149.17.29.33.376.479.061.163-.113.727-.197.998-.047.153-.092.3-.128.437-.042.16-.078.331-.114.503-.039.188-.099.479-.162.639a5.016 5.016 0 01-.904-.504c-1.797-1.338-2.456-2.199-3.358-4.382-.677-1.641-1.013-4.888-.677-6.556.375-1.869 1.174-4.248 1.818-5.417 1.447-2.619 3.546-4.739 6.239-6.301 2.133-1.236 4.457-2.022 7.109-2.401.943-.137 1.943-.19 2.971-.237 2.65-.125 5.429.385 7.819 1.433 2.088.917 3.844 2.157 5.367 3.792 1.536 1.646 2.607 3.546 3.277 5.81.351 1.177.528 2.55.528 4.078-.001 1.373-.116 2.629-.384 4.2z"/></symbol><symbol viewBox="0 0 512 512" id="planet-earth" xmlns="http://www.w3.org/2000/svg"><path d="M387.664 464.017c-2.77-4.774-8.887-6.4-13.667-3.63l-.385.222c-4.776 2.771-6.401 8.89-3.631 13.667a9.996 9.996 0 0013.667 3.63l.385-.222c4.776-2.771 6.401-8.89 3.631-13.667z"/><path d="M477.694 128.08C443.512 68.875 388.321 26.526 322.287 8.832 256.255-8.862 187.283.219 128.078 34.4 68.874 68.581 26.524 123.773 8.831 189.806-8.862 255.839.218 324.812 34.399 384.016c30.661 53.107 79.393 93.468 137.219 113.646a256.812 256.812 0 0084.597 14.337c31.065 0 62.074-5.646 91.385-16.911 5.155-1.981 7.727-7.766 5.745-12.921s-7.768-7.73-12.921-5.745c-78.02 29.987-162.482 16.362-225.585-31.004l8.959-46.765 4.317-1.402c16.313-5.3 25.273-22.884 19.975-39.198l-3.168-9.749a11.042 11.042 0 01.01-6.895 31.12 31.12 0 00-2.725-25.433 31.127 31.127 0 00-20.867-14.795l-22.57-4.41-43.548-33.11a10 10 0 00-9.142-1.551l-25.496 8.282a235.743 235.743 0 01-.035-27.303 57.936 57.936 0 012.064 1.992 10.044 10.044 0 001.841 2.253c2.082 1.896 3.968 2.756 7.928 2.756 3.639-.001 9.026-.726 17.921-2.04a1018.28 1018.28 0 0016.911-2.666 10 10 0 006.608-15.493l-12.261-17.984 17.562-12.558a10.007 10.007 0 002.861-3.164l27.223-47.525 10.973-11.758c11.213-12.018 14.413-29.601 8.151-44.797-3.694-8.963-10.146-16.425-18.216-21.454a236.657 236.657 0 0127.963-18.932c36.338-20.98 75.994-31.147 115.233-31.536l-17.856 22.399-66.215 23.213a9.995 9.995 0 00-5.935 5.622l-18.492 44.828a10 10 0 001.105 9.623l27.008 37.832c-3.868 3.529-7.633 8.669-12.13 15.051-1.972 2.799-3.834 5.442-5.121 6.924a406.453 406.453 0 01-3.349 3.798c-5.809 6.535-11.815 13.294-16.082 22.322-9.382 19.859-7.487 42.941 4.945 60.239 12.021 16.725 31.839 25.227 52.991 22.739 3.446-.404 6.659-1.199 9.768-1.969 8.573-2.121 11.289-2.333 14.039.241 1.338 1.253 1.461 1.49 1.434 5.739-.019 2.704-.04 6.068.892 9.909 1.493 6.145 5.352 10.392 8.452 13.804 1.541 1.695 3.135 3.449 3.626 4.626 3.119 7.474 1.761 11.613-1.215 20.683a382.87 382.87 0 00-.776 2.38c-4.521 13.995 1.781 27.877 7.341 40.123 1.806 3.977 3.511 7.731 4.628 11.049 8.991 26.679 15.731 32.789 21.14 35.249 2.833 1.288 5.765 1.853 8.727 1.852 14.415-.001 29.457-13.385 36.367-21.87 4.34-5.328 5.409-10.663 6.189-14.56.389-1.938.695-3.468 1.279-4.468.894-1.53 1.947-2.716 3.28-4.218 2.681-3.019 6.018-6.775 8.179-13.584 1.642-5.172 2.835-6.44 6.786-10.648a272.63 272.63 0 002.208-2.369c13.319-14.493 9.889-25.564 6.256-37.286-3.057-9.863 2.29-16.171 15.218-28.21 5.604-5.219 11.398-10.615 15.877-17.099 1.96-2.838 7.923-11.471 4.233-20.028-3.617-8.39-12.81-9.8-20.196-10.932-2.917-.448-7.325-1.124-8.728-2.041-6.187-4.045-9.972-12.487-13.633-20.652-.729-1.625-1.448-3.229-2.177-4.786-1.3-2.778-2.599-6.139-3.974-9.697-3.638-9.416-7.761-20.089-14.78-27.529-6.309-6.685-18.202-9.905-28.695-12.747-3.529-.955-6.86-1.857-9.057-2.668a9.986 9.986 0 00-5.745-.355c-5.107 1.197-8.293 2.516-10.659 4.412-.625.501-2.476 2.146-3.56 4.79-3.661-1.757-8.695-5.112-11.793-7.177l-.193-.129c1.044-4.178.099-7.531-.891-9.625-5.586-11.816-24.129-10.891-27.787-10.58-2.078.174-4.707.267-7.488.365-4.368.155-9.196.329-13.973.865l.246-.686c3.626-10.103 13.274-16.891 24.008-16.891h5.685c5.521 0 9.999-4.478 9.999-9.999 0-5.521-4.478-9.999-9.999-9.999h-5.685c-15.936 0-30.529 8.387-38.708 21.588l-14.915-20.893 14.674-35.569L244.787 60.5a10.004 10.004 0 004.511-3.203l28.763-36.079c73.494 6.991 142.674 48.197 182.316 116.859a233.354 233.354 0 0123.563 57.236l-4.239 3.78a26.708 26.708 0 00-8.899 19.429 9.57 9.57 0 01-.006.241l-6.906-18.992a24.964 24.964 0 00-4.503-7.724l-12.319-14.423a25.06 25.06 0 00-19.081-8.796h-15.079a14.46 14.46 0 00-12.77 7.649 14.46 14.46 0 00.72 14.868l1.526 2.291c-9.744 8.379-21.014 15.084-33.014 19.606l-20.67-39.593v-8.833a9.994 9.994 0 00-3.095-7.232l-18.613-17.769a10.013 10.013 0 00-3.59-2.201l-16.755-5.888c-5.213-1.834-10.919.909-12.749 6.118-1.831 5.211.908 10.918 6.118 12.749l14.724 5.175 13.962 13.327v7.008c0 1.611.39 3.199 1.136 4.628l25.877 49.567a9.995 9.995 0 0012.323 4.754l7.535-2.778c17.505-6.456 33.73-16.841 46.922-30.031a9.998 9.998 0 001.249-12.617l-.532-.799h4.775a5.09 5.09 0 013.876 1.787l12.319 14.423c.397.465.704.991.914 1.568l13.595 37.383a10 10 0 0016.466 3.652l6.471-6.471c4.098-4.099 6.919-9.285 8.267-15.034 10.008 80.205-21.441 163.173-87.915 215.347-4.345 3.409-5.103 9.694-1.692 14.039 3.409 4.345 9.693 5.103 14.039 1.692 47.992-37.667 80.962-91.542 92.837-151.701 11.986-60.739 1.521-123.754-29.47-177.432zM47.282 282.747l41.233 31.351a9.99 9.99 0 004.135 1.854l24.852 4.856c3.172.62 5.818 2.496 7.453 5.284 1.635 2.787 1.979 6.012.973 9.083a30.91 30.91 0 00-.027 19.307l3.168 9.748c1.893 5.826-1.309 12.107-7.134 14l-9.937 3.229a9.997 9.997 0 00-6.73 7.628l-7.998 41.749c-17.583-16.093-33.021-35.113-45.552-56.818-15.288-26.477-24.84-54.718-29.05-83.274l24.614-7.997zm58.277-159.489l-11.763 12.603a10.041 10.041 0 00-1.367 1.853L65.717 184.35l-23.741 16.976a9.999 9.999 0 00-2.446 13.767l8.879 13.024c-5.118.762-9.711 1.39-12.765 1.723a160.453 160.453 0 00-1.836-1.724c-2.377-2.208-5.68-5.157-10.604-9.466 8.121-50.263 32.341-97.615 70.433-133.76 7.294 2.297 13.28 7.738 16.204 14.835 3.29 7.982 1.608 17.22-4.282 23.533zm81.53 54.643c4.46-2.51 14.812-2.877 22.37-3.145 3.029-.107 5.891-.209 8.447-.423 1.349-.113 2.847-.092 4.26.018a9.993 9.993 0 004.6 12.441c1.876 1.004 4.487 2.745 7.251 4.588 7.815 5.21 16.674 11.115 24.996 11.645 7.568.491 11.779-3.822 13.583-5.659.144-.146.28-.292.424-.425a10.713 10.713 0 002.676-3.277c1.599.457 3.279.912 5.001 1.379 5.921 1.603 16.942 4.587 19.377 7.167 4.325 4.585 7.696 13.312 10.671 21.011 1.503 3.891 2.923 7.563 4.516 10.968.684 1.461 1.357 2.966 2.041 4.49 4.614 10.292 9.844 21.958 20.939 29.21 5.031 3.289 11.198 4.234 16.64 5.069.658.101 1.412.217 2.178.343-3.23 4.506-7.829 8.788-12.688 13.313-12.379 11.528-27.785 25.876-20.69 48.765 3.349 10.808 3.505 11.976-1.88 17.834-.734.799-1.418 1.527-2.059 2.209-4.612 4.91-8.255 8.788-11.271 18.288-.876 2.759-2.011 4.037-4.072 6.357-1.648 1.856-3.701 4.168-5.594 7.408-2.268 3.882-3.018 7.62-3.619 10.623-.593 2.955-.929 4.438-2.089 5.862-2.641 3.242-7.567 7.95-12.624 11.163-4.7 2.984-7.444 3.392-8.379 3.336-1.067-1.144-4.932-6.153-10.772-23.486-1.44-4.276-3.438-8.676-5.37-12.931-4.259-9.38-8.662-19.08-6.52-25.709.253-.782.503-1.546.749-2.293 3.422-10.43 6.652-20.279.668-34.619-1.822-4.367-4.723-7.558-7.28-10.374-1.655-1.821-3.53-3.885-3.819-5.073-.352-1.449-.341-3.122-.328-5.059.034-5.225.086-13.12-7.763-20.47-11.066-10.358-23.97-7.167-32.51-5.055-2.623.648-5.101 1.262-7.297 1.52-14.048 1.646-26.59-3.654-34.42-14.55-8.191-11.397-9.38-26.734-3.102-40.024 3.039-6.431 7.63-11.598 12.946-17.578 1.161-1.307 2.333-2.625 3.505-3.975 1.95-2.248 4.096-5.292 6.365-8.515 2.709-3.845 7.753-11.005 9.943-12.367z"/><path d="M410.022 344.278l-4.811-18.134a10 10 0 00-8.478-7.364 10.015 10.015 0 00-9.976 5.161c-1.096 2.02-2.083 4.16-3.037 6.229-1.605 3.481-3.265 7.081-4.992 9.068-.97 1.116-3.462 2.319-5.87 3.481-5.757 2.778-13.642 6.583-16.654 16.185-1.87 5.956-1.172 10.668-.662 14.108.441 2.983.543 4.017-.256 5.893l-.1.233c-3.183 7.469-9.105 21.374-.801 33.195 5.925 8.436 12.155 10.605 16.996 10.605a16.23 16.23 0 002.666-.215c10.2-1.667 17.868-12.277 24.134-33.393l11.762-39.641a9.997 9.997 0 00.079-5.411zm-31.012 39.363c-3.194 10.766-6.02 15.792-7.651 18.02-.188-.24-.392-.512-.61-.823-1.911-2.722.945-9.426 2.835-13.863l.101-.234c3.048-7.154 2.233-12.648 1.64-16.66-.381-2.569-.517-3.673-.04-5.19.392-1.247 2.735-2.457 6.265-4.161 1.565-.756 3.288-1.587 5.027-2.593l-7.567 25.504zM270.03 118.86l-.675-.236c-5.207-1.824-10.917.915-12.745 6.126-1.828 5.212.915 10.917 6.126 12.745l.674.236a9.982 9.982 0 003.31.566c4.128 0 7.992-2.577 9.436-6.692 1.828-5.212-.915-10.918-6.126-12.745z"/></symbol><symbol viewBox="0 0 492.004 492.004" id="right-arrow" xmlns="http://www.w3.org/2000/svg"><path d="M382.678 226.804L163.73 7.86C158.666 2.792 151.906 0 144.698 0s-13.968 2.792-19.032 7.86l-16.124 16.12c-10.492 10.504-10.492 27.576 0 38.064L293.398 245.9l-184.06 184.06c-5.064 5.068-7.86 11.824-7.86 19.028 0 7.212 2.796 13.968 7.86 19.04l16.124 16.116c5.068 5.068 11.824 7.86 19.032 7.86s13.968-2.792 19.032-7.86L382.678 265c5.076-5.084 7.864-11.872 7.848-19.088.016-7.244-2.772-14.028-7.848-19.108z"/></symbol><symbol viewBox="0 0 515.558 515.558" id="serch" xmlns="http://www.w3.org/2000/svg"><path d="M378.344 332.78c25.37-34.645 40.545-77.2 40.545-123.333C418.889 93.963 324.928.002 209.444.002S0 93.963 0 209.447s93.961 209.445 209.445 209.445c46.133 0 88.692-15.177 123.337-40.547l137.212 137.212 45.564-45.564L378.344 332.78zm-168.899 21.667c-79.958 0-145-65.042-145-145s65.042-145 145-145 145 65.042 145 145-65.043 145-145 145z"/></symbol><symbol viewBox="0 0 511.271 511.271" id="twitter" xmlns="http://www.w3.org/2000/svg"><path d="M508.342 94.243c-2.603-2.603-6.942-3.471-10.414-2.603l-17.356 6.075c10.414-12.149 17.356-25.166 21.695-37.315 1.736-4.339.868-7.81-1.736-10.414-2.603-2.603-6.942-3.471-10.414-1.736-24.298 10.414-45.125 19.092-62.481 24.298 0 .868-.868 0-1.736 0-13.885-7.81-47.729-25.166-72.027-25.166-61.614.868-111.078 52.936-111.078 116.285v3.471c-90.251-17.356-139.715-43.39-193.519-99.797L40.6 58.663l-5.207 10.414c-29.505 56.407-8.678 107.607 25.166 142.319-15.62-2.603-26.034-7.81-35.58-15.62-3.471-2.603-7.81-3.471-12.149-.868-3.471 1.736-5.207 6.942-4.339 11.281 12.149 40.786 42.522 73.763 75.498 93.722-15.62 0-28.637-1.736-41.654-10.414-3.471-1.736-8.678-1.736-12.149.868s-5.207 6.942-3.471 11.281c15.62 44.258 45.993 67.688 94.59 73.763-25.166 14.753-58.142 26.902-109.342 27.77-5.207 0-9.546 3.471-11.281 7.81-1.736 5.207 0 9.546 3.471 13.017 31.241 25.166 100.664 39.919 186.576 39.919 152.732 0 277.695-136.244 277.695-303.729v-2.603c19.092-9.546 34.712-27.77 42.522-52.936.867-3.472-.001-7.811-2.604-10.414zm-52.068 49.464l-5.207 1.736v14.753c0 157.939-117.153 286.373-260.339 286.373-78.97 0-131.905-13.017-160.542-26.902 59.878-4.339 94.59-23.431 121.492-44.258l21.695-15.62h-26.034c-49.464 0-79.837-13.885-97.193-46.861 15.62 5.207 32.108 5.207 50.332 4.339 6.942-.868 13.885-.868 20.827-.868l2.603-17.356c-32.976-9.546-72.027-39.051-91.119-78.969 17.356 7.81 36.447 9.546 53.803 9.546h26.902L91.8 213.999c-18.224-13.017-72.027-59.01-45.993-124.963 55.539 54.671 108.475 79.837 203.932 97.193l10.414 1.736v-24.298c0-53.803 41.654-98.061 93.722-98.929 19.959-.868 52.936 17.356 62.481 22.563 5.207 2.603 10.414 3.471 15.62 1.736 13.017-4.339 28.637-10.414 45.993-17.356-7.81 13.017-18.224 25.166-32.108 36.448-3.471 2.603-4.339 7.81-2.603 12.149 1.736 4.339 6.942 6.075 11.281 4.339l33.844-11.281c-6.075 11.28-15.621 24.297-32.109 30.371z"/></symbol><symbol viewBox="0 0 39 31" id="yoga-efect1" xmlns="http://www.w3.org/2000/svg"><path d="M16.792 27.691c-2.171-1.622-4.095-3.368-4.276-3.88-.615-1.741 2.007-.941 4.95 1.51 1.612 1.344 3.488 2.443 4.168 2.443 2.3 0 13.247-10.705 14.36-14.045 1.212-3.635.306-7.157-2.415-9.394-2.255-1.853-8.055-1.745-10.005.186-1.447 1.432-1.859 1.4-4.932-.396-5.96-3.48-12.576.391-12.01 7.029.27 3.188.55 3.452 3.938 3.73 3.205.264 3.834-.06 5.206-2.686.858-1.643 1.754-2.987 1.99-2.987.237 0 .923 1.812 1.525 4.026 1.064 3.913 1.136 3.968 2.561 1.954 1.519-2.146 5.708-2.815 6.79-1.083.338.543-.647 1.238-2.19 1.544-1.763.349-3.486 1.708-4.63 3.652-1.957 3.328-2.044 3.268-4.027-2.765-.597-1.815-.711-1.833-1.612-.245-.777 1.37-2.32 1.71-7.77 1.71-6.634 0-10.188-1.545-6.03-2.622 1.665-.431 2.073-1.297 2.073-4.395 0-4.874 1.273-7.228 4.915-9.093C12.876.09 16.017.053 19.144 1.77c1.973 1.082 2.817 1.061 5.236-.133C32.41-2.33 40.997 5.612 38.093 14.32c-1.363 4.09-14.13 16.488-16.833 16.346-.287-.015-2.297-1.354-4.468-2.976z"/></symbol><symbol viewBox="0 0 43 25" id="yoga-efect2" xmlns="http://www.w3.org/2000/svg"><path d="M14.491 23.246c-1.83-.58-5.734-3.276-8.673-5.991L.473 12.319l5.364-4.865c10.615-9.626 21.346-9.601 31.824.076l5.32 4.914-5.364 4.864c-7.445 6.752-14.686 8.611-23.126 5.938zm16.362-3.532c1.965-1.003 4.803-3.109 6.307-4.68l2.733-2.855-3.48-3.031c-5.294-4.613-9.298-6.34-14.686-6.337-5.559.003-11.248 2.544-15.39 6.873l-2.69 2.812 2.69 2.414c8.723 7.83 15.853 9.226 24.516 4.804zm-12.545-.324c-3.093-1.582-5.125-5.719-4.339-8.829 2.237-8.844 15.475-7.287 15.475 1.82 0 5.83-6.026 9.623-11.136 7.009zm7.371-3.087c3.024-3.001 3.024-4.843 0-7.843s-4.88-3-7.904 0-3.024 4.842 0 7.843c3.024 3 4.88 3 7.904 0zm-8.348-4.697c0-1.621 1.98-3.587 3.615-3.587.698 0 1.27.436 1.27.97 0 .533-.66.969-1.466.969-.806 0-1.465.654-1.465 1.454 0 .8-.44 1.454-.977 1.454-.537 0-.977-.567-.977-1.26z"/></symbol><symbol viewBox="0 0 48 53" id="yoga-efect3" xmlns="http://www.w3.org/2000/svg"><path d="M19.247 51.94c-.04-.407-.053-3.853-.028-7.656.025-3.804-.505-11.806-1.177-17.783L16.82 15.634l-8.34.27c-6.21.2-8.238-.038-7.935-.934.65-1.926 5.415-2.883 18.776-3.77 13.969-.928 22-.384 22 1.492 0 .808-2.566 1.466-7.5 1.922l-7.5.695v7.48l5.75.673c7.578.889 15.75 3.78 15.75 5.574 0 .946-.83 1.3-2.5 1.066-1.375-.193-6.612-.556-11.638-.806l-9.137-.455-.684 10.191c-.377 5.605-.908 10.97-1.18 11.92-.481 1.676-3.287 2.483-3.435.988zm12.074-24.957c8.424-.502 8.455-.514 3.5-1.299-11.206-1.775-10.5-1.368-10.5-6.056 0-4.87 1.107-6.118 6.004-6.764 1.922-.253-.985-.272-6.461-.04-5.477.23-10.164.624-10.417.874-.253.25.71.454 2.14.454 1.622 0 2.783.65 3.089 1.729.588 2.076 2.096 21.112 1.772 22.376-.125.488.12 1.6.545 2.47.472.965.978-1.307 1.3-5.828l.528-7.41zM18.383 6.99C17.3 4.23 19.197.942 22.122.508c2.975-.442 5.733 3.897 4.234 6.662-1.584 2.925-6.8 2.807-7.973-.18zm6.438-2.223c0-2.504-3.972-3.279-4.876-.951-.89 2.291.2 3.585 2.72 3.23 1.386-.195 2.156-1.008 2.156-2.28z"/></symbol><symbol viewBox="0 0 34 34" id="yoga-efect4" xmlns="http://www.w3.org/2000/svg"><path d="M.78 32.6c0-.4.417-2.188.926-3.97.625-2.185.578-4.55-.145-7.26-1.648-6.184-.32-10.926 4.376-15.64 6.92-6.942 15.43-6.942 22.35 0 6.919 6.943 6.919 15.482 0 22.425-4.698 4.713-9.424 6.044-15.587 4.39-2.7-.724-5.058-.772-7.236-.145C1.57 33.52.78 33.554.78 32.6zm22.696-3.184c2.968-1.442 4.63-3.11 6.068-6.088 2.486-5.154 2.486-7.616 0-12.77-2.09-4.333-7.852-8.074-12.432-8.074-1.251 0-4.115.893-6.364 1.986-5.337 2.592-8.658 8.865-7.53 14.222.412 1.954.698 5.441.635 7.75l-.115 4.196 3.19-.6c1.756-.33 4.225-.187 5.487.32 3.625 1.455 6.656 1.197 11.061-.942zm-.236-4.426c1.401-1.406 2.793-2.31 3.093-2.008.711.713-3.127 4.564-4.548 4.564-.6 0 .054-1.15 1.455-2.556zM8.065 22.855c-.283-.46.364-1.633 1.439-2.609l1.954-1.774-2.217-.964c-2.039-.887-1.92-.992 1.483-1.31 4.779-.448 5.305.207 2.542 3.158l-2.253 2.406h2.089c1.149 0 2.089.434 2.089.964 0 1.18-6.408 1.295-7.126.13zm9.047-3.697c0-.373 1.382-2.108 3.07-3.856l3.071-3.179h-3.07c-1.69 0-3.07-.434-3.07-.964s1.945-.964 4.322-.964c5.057 0 5.448 1.126 1.742 5.008l-2.582 2.704h2.582c1.42 0 2.581.433 2.581.964 0 .53-1.945.964-4.323.964-2.377 0-4.323-.305-4.323-.677z"/></symbol><symbol viewBox="0 0 48 36" id="yoga-efect5" xmlns="http://www.w3.org/2000/svg"><path d="M12.952 32.43c-2.196-5.405-2.209-13.615-.03-18.54 1.426-3.223 1.862-5.778 1.478-8.643-.582-4.344 1.033-5.751 2.088-1.817.998 3.725.644 8.101-.87 10.75-.786 1.375-1.445 2.837-1.465 3.25-.02.412 4.465.75 9.965.75s9.984-.338 9.965-.75c-.02-.413-.679-1.875-1.465-3.25-2.195-3.84-1.67-13 .744-13 .616 0 .767 1.527.388 3.9-.448 2.802-.068 5.124 1.35 8.25 2.219 4.889 2.581 11.866.881 16.95-2.394 7.162-4.498 6.659-2.326-.556 2.278-7.57 2-7.91-3.52-4.302-4.273 2.795-4.984 3.72-5 6.508-.009 1.787-.467 3.25-1.017 3.25-.55 0-1.008-1.463-1.018-3.25-.015-2.788-.726-3.713-5-6.508-5.527-3.614-5.804-3.27-3.493 4.349 1.784 5.88 1.741 5.409.486 5.409-.563 0-1.527-1.238-2.141-2.75zM28 23.93l3.618-2.25-3.75-.31c-2.063-.171-5.438-.171-7.5 0l-3.75.31 3.5 2.233c1.925 1.228 3.672 2.24 3.882 2.25.21.01 2.01-.996 4-2.233zM8.55 11.863c-.355-.926-1.498-1.683-2.539-1.683-1.041 0-1.893-.45-1.893-1s.852-1 1.893-1 2.184-.758 2.539-1.683c.58-1.51.871-1.459 2.83.5l2.182 2.183-2.183 2.183c-1.958 1.958-2.25 2.01-2.83.5zm28.096-.652c-1.873-2.07-1.87-2.134.246-4.25 1.931-1.931 2.213-1.978 2.794-.464.355.925 1.498 1.683 2.539 1.683 1.041 0 1.893.45 1.893 1s-.738 1-1.64 1c-.902 0-2.155.705-2.785 1.566-1.019 1.394-1.355 1.335-3.047-.535z"/></symbol><symbol viewBox="0 0 19 51" id="yoga-efect6" xmlns="http://www.w3.org/2000/svg"><path d="M5.562 49.165c-.215-.708-.565-3.523-.777-6.256-.244-3.143-1.175-6.084-2.535-8.007C.802 32.855.28 31.108.653 29.555c.528-2.197.934-2.306 8.597-2.306 7.663 0 8.069.109 8.596 2.306.372 1.547-.143 3.292-1.56 5.295-1.48 2.093-2.258 4.87-2.596 9.27-.652 8.485-2.663 7.823-2.297-.757.185-4.332.837-7.088 2.11-8.924 1.014-1.46 1.843-3.02 1.843-3.467 0-.8-11.184-.648-11.96.162-.218.229.518 1.71 1.638 3.293 2.357 3.332 3.768 14.192 1.993 15.338-.585.378-1.24.108-1.455-.6zM2.15 23.792c-2.343-2.448-2.288-4.909.18-8.188 1.38-1.835 2.137-4.58 2.475-8.99.656-8.538 2.67-7.935 2.302.689-.185 4.332-.836 7.088-2.11 8.923-1.013 1.461-1.842 3.35-1.842 4.197 0 2.012 2.65 3.038 4.584 1.775 1.028-.67 2.01-.67 3.03.002 1.92 1.265 4.578.234 4.578-1.777 0-.847-.908-2.824-2.017-4.392-1.48-2.091-2.042-4.365-2.11-8.537-.124-7.503 1.63-7.83 2.333-.434.36 3.781 1.256 6.733 2.579 8.49 2.352 3.126 2.548 5.234.728 7.836-1.934 2.764-12.183 3.048-14.71.406z"/></symbol><symbol viewBox="0 0 49 33" id="yoga-efect7" xmlns="http://www.w3.org/2000/svg"><path d="M18.538 31.596c-.357-.573.171-1.635 1.175-2.361 1.57-1.135 1.823-2.696 1.804-11.142-.029-12.598-.248-12.84-12.255-13.517C3.371 4.244.378 3.7.614 3 1.189 1.293 8.29.526 20.848.814c9.114.208 12.513.677 15.532 2.142 4.06 1.97 4.423 2.745 9.787 20.9.714 2.414 1.617 5.158 2.007 6.097.545 1.313.221 1.708-1.4 1.708-1.161 0-2.359-.769-2.662-1.708-1.329-4.112-6.66-15.963-7.38-16.402-.434-.266-2.426 2.054-4.425 5.155-3.18 4.93-5.421 7.98-9.342 12.71-1.237 1.494-3.547 1.587-4.427.18zm13.095-15.302c2-3.353 4.144-6.097 4.765-6.097.62 0 2.561 3.073 4.312 6.83 3.79 8.13 5.464 9.36 1.992 1.463-.472-1.074-1.472-4.13-2.223-6.793-2.059-7.3-4.532-8.67-16.239-8.994-7.574-.21-8.934-.06-6.424.709 4.576 1.402 5.448 3.827 5.388 14.99l-.054 9.844 2.423-2.927c1.333-1.61 4.06-5.67 6.06-9.025zm-6.375.488c.043-5.855.997-7.56 4.226-7.56 2.04 0 2.192.292 1.463 2.807-1.195 4.12-4.09 9.875-4.967 9.875-.418 0-.743-2.305-.722-5.122zm4.632-5.823c.02-.386-.63-.448-1.445-.14-.814.31-1.464 1.723-1.445 3.14l.035 2.58 1.41-2.44c.776-1.341 1.426-2.754 1.445-3.14zm-16.355.77c-.982-2.532.395-4.624 2.82-4.284 3.161.444 3.161 5.06 0 5.503-1.335.188-2.463-.3-2.82-1.22zm4.11-.642c1.017-1.626-1.27-3.492-2.63-2.146-1.14 1.126-.427 3.207 1.097 3.207.479 0 1.169-.477 1.533-1.06z"/></symbol><symbol viewBox="0 0 28 36" id="yoga-efect8" xmlns="http://www.w3.org/2000/svg"><path d="M10.139 33.495c-.545-1.523-.358-3.275.548-5.142 1.636-3.37 1.01-4.914-4.05-9.999-6.725-6.76-7.922-11.763-3.84-16.062C4.89.088 5.87-.23 8.89.308c4.487.8 5.636.8 10.123 0 3.022-.538 4-.22 6.092 1.984 3.948 4.156 3.365 8.003-2.169 14.327-7.42 8.48-7.36 8.357-5.751 11.67 2.045 4.213.624 7.515-3.233 7.515-2.203 0-3.204-.606-3.813-2.31zm5.435-1.352c.812-2.23-1.25-4.326-2.727-2.772-1.247 1.314-.474 4.38 1.105 4.38.57 0 1.3-.723 1.622-1.608zm3.88-15.072c2.72-2.964 5.226-6.23 5.567-7.26.778-2.344-.74-5.427-3.41-6.933-1.667-.939-2.564-.747-4.852 1.034l-2.807 2.186-2.808-2.186C8.856 2.131 7.96 1.94 6.293 2.878 2.81 4.842 1.87 7.831 3.775 10.892c2.105 3.385 9.244 11.568 10.09 11.568.353 0 2.867-2.425 5.588-5.389z"/></symbol></svg>