<svg xmlns="http://www.w3.org/2000/svg" viewBox="0 0 51.148 51.148"><path d="M22.82 34.793a9.56 9.56 0 00-.995-.047c-.23-.019-.662-.018-1.829.091a19.27 19.27 0 00-2.873.647c-.221.084-.53.212-.959.393a6.688 6.688 0 00-1.427.916 5.402 5.402 0 00-1.179 1.513c-.394.682-.595 1.496-.595 2.418 0 1.804.813 3.3 2.396 4.431 1.434 1.079 3.379 1.641 5.809 1.67 2.191-.03 3.918-.545 5.131-1.53l.005-.003c1.249-1.025 1.883-2.363 1.883-3.975 0-1.309-.434-2.465-1.324-3.473-.784-.803-1.955-1.744-3.577-2.876a1.012 1.012 0 00-.466-.175zm3.366 6.524c0 .997-.376 1.791-1.149 2.426-.855.694-2.167 1.058-3.871 1.082-1.969-.023-3.518-.45-4.624-1.282-1.061-.759-1.578-1.681-1.578-2.818 0-.567.109-1.044.344-1.45a3.49 3.49 0 01.725-.958c.334-.272.659-.481.938-.609.371-.157.659-.276.795-.331a17.39 17.39 0 012.464-.554c.811-.075 1.178-.087 1.328-.087.062 0 .087.002.094.002.256.033.498.01.709.023 1.387.979 2.418 1.811 3.038 2.442.529.604.787 1.296.787 2.114z"/><path d="M34.574 5.265H23.049c-1.585 0-3.307.187-5.144.561-1.911.446-3.766 1.402-5.576 2.897-2.576 2.491-3.882 5.324-3.882 8.42 0 2.599.943 4.903 2.764 6.804 1.794 2.112 4.406 3.205 7.776 3.247.134 0 .271-.002.411-.006a4.75 4.75 0 00-.128 1.154c0 1.037.243 1.949.683 2.639.069.133.141.266.215.396a57.478 57.478 0 00-3.457.416 19.03 19.03 0 00-6.225 2.259c-1.827 1.09-3.117 2.394-3.826 3.862-.721 1.443-1.086 2.793-1.086 4.012 0 2.502 1.144 4.664 3.368 6.402 2.164 1.831 5.421 2.779 9.703 2.819 5.042-.079 8.981-1.325 11.711-3.704 2.681-2.343 4.04-5.094 4.04-8.193-.039-2.166-.554-3.962-1.551-5.367a20.773 20.773 0 00-3.358-3.461l-1.916-1.569a11.326 11.326 0 01-.8-.909c-.118-.131-.274-.36-.274-.823 0-.404.105-.744.354-1.085.261-.4.541-.757.771-1.001a54.793 54.793 0 001.77-1.611 16.759 16.759 0 001.456-1.769c.991-1.401 1.513-3.254 1.549-5.525l.001-.375c.004-.859.006-1.333-.277-2.271-.391-1.069-.76-1.896-1.328-2.485l-.026-.026h.975a1 1 0 00.795-.393l2.834-3.708c.23-.302.271-.709.102-1.051a1.008 1.008 0 00-.899-.556zm-3.328 3.709h-3.062a.994.994 0 00-.949.722c-.126.424.053.887.424 1.128.225.146 1.062.956 1.419 1.302l.305.292c.353.368.707 1.338.84 1.697.18.598.179.838.175 1.633l-.001.367c-.029 1.844-.427 3.32-1.179 4.381a14.686 14.686 0 01-1.239 1.515 64.317 64.317 0 01-1.733 1.577 8.832 8.832 0 00-1.039 1.313c-.471.642-.709 1.389-.709 2.222 0 .85.264 1.576.747 2.113.312.392.63.751.945 1.067.023.023.049.046.074.067l1.956 1.602a18.73 18.73 0 013.016 3.098c.739 1.042 1.13 2.461 1.161 4.2 0 2.513-1.098 4.695-3.355 6.668-2.362 2.059-5.87 3.14-10.401 3.211-3.779-.036-6.607-.825-8.436-2.371-1.769-1.383-2.63-2.97-2.63-4.851 0-.906.295-1.955.881-3.13.542-1.122 1.57-2.14 3.04-3.017a16.978 16.978 0 015.531-2.012c1.98-.292 3.646-.458 4.951-.496a1 1 0 00.767-1.606 11.847 11.847 0 01-1.059-1.68c-.279-.443-.415-.981-.415-1.644 0-.366.047-.669.163-.945.122-.354.238-.678.346-.974a1 1 0 00-1.05-1.335 15.8 15.8 0 01-1.729.106c-2.793-.035-4.842-.867-6.305-2.585-1.513-1.582-2.248-3.37-2.248-5.466 0-2.568 1.07-4.852 3.213-6.929 1.51-1.244 3.091-2.064 4.672-2.434 1.679-.341 3.266-.515 4.717-.515h9.503l-1.307 1.709z"/><path d="M20.16 10.298c-1.365.033-2.516.588-3.418 1.651a1.12 1.12 0 00-.065.085 5.884 5.884 0 00-1.033 3.507c0 1.594.464 3.26 1.388 4.967a7.123 7.123 0 001.826 2.134c.819.644 1.769.97 2.819.97h.037c1.306-.049 2.411-.529 3.286-1.426.043-.044.082-.093.117-.144a5.18 5.18 0 00.809-1.995c.06-.56.092-1.046.092-1.445 0-1.714-.44-3.455-1.302-5.167a6.297 6.297 0 00-1.792-2.231c-.789-.569-1.7-.873-2.764-.906zm3.858 8.304c0 .327-.027.741-.07 1.159-.065.363-.215.73-.444 1.094-.496.478-1.101.727-1.845.758a2.472 2.472 0 01-1.567-.544 5.132 5.132 0 01-1.309-1.526c-.756-1.396-1.139-2.743-1.139-4.024a3.882 3.882 0 01.657-2.314c.523-.599 1.13-.887 1.851-.906.612.019 1.136.192 1.571.505.491.384.894.893 1.202 1.522.726 1.438 1.093 2.877 1.093 4.276zM45.574 3h-3V0h-2v3h-3v2h3v3h2V5h3z"/></svg>