<svg xmlns="http://www.w3.org/2000/svg" viewBox="0 0 39.474 39.474"><path d="M38.347 4.825c.619 0 1.127.508 1.127 1.127v27.571c0 .619-.508 1.127-1.127 1.127H1.111A1.12 1.12 0 010 33.522V5.952c0-.619.492-1.127 1.111-1.127h37.236zM19.729 20.348l8.444-7.301 6.904-5.984H4.381l6.904 5.984 8.444 7.301zm9.904-5.619l-9.158 7.936a1.132 1.132 0 01-1.476.016l-9.174-7.952-7.587-6.571v23.158l7.587-6.587 4.254-3.667a1.095 1.095 0 011.571.111c.413.46.349 1.175-.111 1.571l-4.254 3.682-6.904 5.968h30.697l-6.904-5.968-4.254-3.682a1.123 1.123 0 01-.111-1.571 1.096 1.096 0 011.571-.111l4.254 3.667 7.603 6.587V8.158l-7.604 6.571z" fill="#1e201d"/></svg>