<svg xmlns="http://www.w3.org/2000/svg" width="48" height="36"><path d="M12.952 32.43c-2.196-5.405-2.209-13.615-.03-18.54 1.426-3.223 1.862-5.778 1.478-8.643-.582-4.344 1.033-5.751 2.088-1.817.998 3.725.644 8.101-.87 10.75-.786 1.375-1.445 2.837-1.465 3.25-.02.412 4.465.75 9.965.75s9.984-.338 9.965-.75c-.02-.413-.679-1.875-1.465-3.25-2.195-3.84-1.67-13 .744-13 .616 0 .767 1.527.388 3.9-.448 2.802-.068 5.124 1.35 8.25 2.219 4.889 2.581 11.866.881 16.95-2.394 7.162-4.498 6.659-2.326-.556 2.278-7.57 2-7.91-3.52-4.302-4.273 2.795-4.984 3.72-5 6.508-.009 1.787-.467 3.25-1.017 3.25-.55 0-1.008-1.463-1.018-3.25-.015-2.788-.726-3.713-5-6.508-5.527-3.614-5.804-3.27-3.493 4.349 1.784 5.88 1.741 5.409.486 5.409-.563 0-1.527-1.238-2.141-2.75zM28 23.93l3.618-2.25-3.75-.31c-2.063-.171-5.438-.171-7.5 0l-3.75.31 3.5 2.233c1.925 1.228 3.672 2.24 3.882 2.25.21.01 2.01-.996 4-2.233zM8.55 11.863c-.355-.926-1.498-1.683-2.539-1.683-1.041 0-1.893-.45-1.893-1s.852-1 1.893-1 2.184-.758 2.539-1.683c.58-1.51.871-1.459 2.83.5l2.182 2.183-2.183 2.183c-1.958 1.958-2.25 2.01-2.83.5zm28.096-.652c-1.873-2.07-1.87-2.134.246-4.25 1.931-1.931 2.213-1.978 2.794-.464.355.925 1.498 1.683 2.539 1.683 1.041 0 1.893.45 1.893 1s-.738 1-1.64 1c-.902 0-2.155.705-2.785 1.566-1.019 1.394-1.355 1.335-3.047-.535z"/></svg>