<svg xmlns="http://www.w3.org/2000/svg" width="34" height="34"><path d="M.78 32.6c0-.4.417-2.188.926-3.97.625-2.185.578-4.55-.145-7.26-1.648-6.184-.32-10.926 4.376-15.64 6.92-6.942 15.43-6.942 22.35 0 6.919 6.943 6.919 15.482 0 22.425-4.698 4.713-9.424 6.044-15.587 4.39-2.7-.724-5.058-.772-7.236-.145C1.57 33.52.78 33.554.78 32.6zm22.696-3.184c2.968-1.442 4.63-3.11 6.068-6.088 2.486-5.154 2.486-7.616 0-12.77-2.09-4.333-7.852-8.074-12.432-8.074-1.251 0-4.115.893-6.364 1.986-5.337 2.592-8.658 8.865-7.53 14.222.412 1.954.698 5.441.635 7.75l-.115 4.196 3.19-.6c1.756-.33 4.225-.187 5.487.32 3.625 1.455 6.656 1.197 11.061-.942zm-.236-4.426c1.401-1.406 2.793-2.31 3.093-2.008.711.713-3.127 4.564-4.548 4.564-.6 0 .054-1.15 1.455-2.556zM8.065 22.855c-.283-.46.364-1.633 1.439-2.609l1.954-1.774-2.217-.964c-2.039-.887-1.92-.992 1.483-1.31 4.779-.448 5.305.207 2.542 3.158l-2.253 2.406h2.089c1.149 0 2.089.434 2.089.964 0 1.18-6.408 1.295-7.126.13zm9.047-3.697c0-.373 1.382-2.108 3.07-3.856l3.071-3.179h-3.07c-1.69 0-3.07-.434-3.07-.964s1.945-.964 4.322-.964c5.057 0 5.448 1.126 1.742 5.008l-2.582 2.704h2.582c1.42 0 2.581.433 2.581.964 0 .53-1.945.964-4.323.964-2.377 0-4.323-.305-4.323-.677z"/></svg>