<svg xmlns="http://www.w3.org/2000/svg" width="28" height="36"><path d="M10.139 33.495c-.545-1.523-.358-3.275.548-5.142 1.636-3.37 1.01-4.914-4.05-9.999-6.725-6.76-7.922-11.763-3.84-16.062C4.89.088 5.87-.23 8.89.308c4.487.8 5.636.8 10.123 0 3.022-.538 4-.22 6.092 1.984 3.948 4.156 3.365 8.003-2.169 14.327-7.42 8.48-7.36 8.357-5.751 11.67 2.045 4.213.624 7.515-3.233 7.515-2.203 0-3.204-.606-3.813-2.31zm5.435-1.352c.812-2.23-1.25-4.326-2.727-2.772-1.247 1.314-.474 4.38 1.105 4.38.57 0 1.3-.723 1.622-1.608zm3.88-15.072c2.72-2.964 5.226-6.23 5.567-7.26.778-2.344-.74-5.427-3.41-6.933-1.667-.939-2.564-.747-4.852 1.034l-2.807 2.186-2.808-2.186C8.856 2.131 7.96 1.94 6.293 2.878 2.81 4.842 1.87 7.831 3.775 10.892c2.105 3.385 9.244 11.568 10.09 11.568.353 0 2.867-2.425 5.588-5.389z"/></svg>