<svg xmlns="http://www.w3.org/2000/svg" width="49" height="33"><path d="M18.538 31.596c-.357-.573.171-1.635 1.175-2.361 1.57-1.135 1.823-2.696 1.804-11.142-.029-12.598-.248-12.84-12.255-13.517C3.371 4.244.378 3.7.614 3 1.189 1.293 8.29.526 20.848.814c9.114.208 12.513.677 15.532 2.142 4.06 1.97 4.423 2.745 9.787 20.9.714 2.414 1.617 5.158 2.007 6.097.545 1.313.221 1.708-1.4 1.708-1.161 0-2.359-.769-2.662-1.708-1.329-4.112-6.66-15.963-7.38-16.402-.434-.266-2.426 2.054-4.425 5.155-3.18 4.93-5.421 7.98-9.342 12.71-1.237 1.494-3.547 1.587-4.427.18zm13.095-15.302c2-3.353 4.144-6.097 4.765-6.097.62 0 2.561 3.073 4.312 6.83 3.79 8.13 5.464 9.36 1.992 1.463-.472-1.074-1.472-4.13-2.223-6.793-2.059-7.3-4.532-8.67-16.239-8.994-7.574-.21-8.934-.06-6.424.709 4.576 1.402 5.448 3.827 5.388 14.99l-.054 9.844 2.423-2.927c1.333-1.61 4.06-5.67 6.06-9.025zm-6.375.488c.043-5.855.997-7.56 4.226-7.56 2.04 0 2.192.292 1.463 2.807-1.195 4.12-4.09 9.875-4.967 9.875-.418 0-.743-2.305-.722-5.122zm4.632-5.823c.02-.386-.63-.448-1.445-.14-.814.31-1.464 1.723-1.445 3.14l.035 2.58 1.41-2.44c.776-1.341 1.426-2.754 1.445-3.14zm-16.355.77c-.982-2.532.395-4.624 2.82-4.284 3.161.444 3.161 5.06 0 5.503-1.335.188-2.463-.3-2.82-1.22zm4.11-.642c1.017-1.626-1.27-3.492-2.63-2.146-1.14 1.126-.427 3.207 1.097 3.207.479 0 1.169-.477 1.533-1.06z"/></svg>