<svg xmlns="http://www.w3.org/2000/svg" width="19" height="51"><path d="M5.562 49.165c-.215-.708-.565-3.523-.777-6.256-.244-3.143-1.175-6.084-2.535-8.007C.802 32.855.28 31.108.653 29.555c.528-2.197.934-2.306 8.597-2.306 7.663 0 8.069.109 8.596 2.306.372 1.547-.143 3.292-1.56 5.295-1.48 2.093-2.258 4.87-2.596 9.27-.652 8.485-2.663 7.823-2.297-.757.185-4.332.837-7.088 2.11-8.924 1.014-1.46 1.843-3.02 1.843-3.467 0-.8-11.184-.648-11.96.162-.218.229.518 1.71 1.638 3.293 2.357 3.332 3.768 14.192 1.993 15.338-.585.378-1.24.108-1.455-.6zM2.15 23.792c-2.343-2.448-2.288-4.909.18-8.188 1.38-1.835 2.137-4.58 2.475-8.99.656-8.538 2.67-7.935 2.302.689-.185 4.332-.836 7.088-2.11 8.923-1.013 1.461-1.842 3.35-1.842 4.197 0 2.012 2.65 3.038 4.584 1.775 1.028-.67 2.01-.67 3.03.002 1.92 1.265 4.578.234 4.578-1.777 0-.847-.908-2.824-2.017-4.392-1.48-2.091-2.042-4.365-2.11-8.537-.124-7.503 1.63-7.83 2.333-.434.36 3.781 1.256 6.733 2.579 8.49 2.352 3.126 2.548 5.234.728 7.836-1.934 2.764-12.183 3.048-14.71.406z"/></svg>