<svg xmlns="http://www.w3.org/2000/svg" width="43" height="25"><path d="M14.491 23.246c-1.83-.58-5.734-3.276-8.673-5.991L.473 12.319l5.364-4.865c10.615-9.626 21.346-9.601 31.824.076l5.32 4.914-5.364 4.864c-7.445 6.752-14.686 8.611-23.126 5.938zm16.362-3.532c1.965-1.003 4.803-3.109 6.307-4.68l2.733-2.855-3.48-3.031c-5.294-4.613-9.298-6.34-14.686-6.337-5.559.003-11.248 2.544-15.39 6.873l-2.69 2.812 2.69 2.414c8.723 7.83 15.853 9.226 24.516 4.804zm-12.545-.324c-3.093-1.582-5.125-5.719-4.339-8.829 2.237-8.844 15.475-7.287 15.475 1.82 0 5.83-6.026 9.623-11.136 7.009zm7.371-3.087c3.024-3.001 3.024-4.843 0-7.843s-4.88-3-7.904 0-3.024 4.842 0 7.843c3.024 3 4.88 3 7.904 0zm-8.348-4.697c0-1.621 1.98-3.587 3.615-3.587.698 0 1.27.436 1.27.97 0 .533-.66.969-1.466.969-.806 0-1.465.654-1.465 1.454 0 .8-.44 1.454-.977 1.454-.537 0-.977-.567-.977-1.26z"/></svg>