<svg xmlns="http://www.w3.org/2000/svg" width="39" height="31"><path d="M16.792 27.691c-2.171-1.622-4.095-3.368-4.276-3.88-.615-1.741 2.007-.941 4.95 1.51 1.612 1.344 3.488 2.443 4.168 2.443 2.3 0 13.247-10.705 14.36-14.045 1.212-3.635.306-7.157-2.415-9.394-2.255-1.853-8.055-1.745-10.005.186-1.447 1.432-1.859 1.4-4.932-.396-5.96-3.48-12.576.391-12.01 7.029.27 3.188.55 3.452 3.938 3.73 3.205.264 3.834-.06 5.206-2.686.858-1.643 1.754-2.987 1.99-2.987.237 0 .923 1.812 1.525 4.026 1.064 3.913 1.136 3.968 2.561 1.954 1.519-2.146 5.708-2.815 6.79-1.083.338.543-.647 1.238-2.19 1.544-1.763.349-3.486 1.708-4.63 3.652-1.957 3.328-2.044 3.268-4.027-2.765-.597-1.815-.711-1.833-1.612-.245-.777 1.37-2.32 1.71-7.77 1.71-6.634 0-10.188-1.545-6.03-2.622 1.665-.431 2.073-1.297 2.073-4.395 0-4.874 1.273-7.228 4.915-9.093C12.876.09 16.017.053 19.144 1.77c1.973 1.082 2.817 1.061 5.236-.133C32.41-2.33 40.997 5.612 38.093 14.32c-1.363 4.09-14.13 16.488-16.833 16.346-.287-.015-2.297-1.354-4.468-2.976z"/></svg>