<svg xmlns="http://www.w3.org/2000/svg" width="48" height="53"><path d="M19.247 51.94c-.04-.407-.053-3.853-.028-7.656.025-3.804-.505-11.806-1.177-17.783L16.82 15.634l-8.34.27c-6.21.2-8.238-.038-7.935-.934.65-1.926 5.415-2.883 18.776-3.77 13.969-.928 22-.384 22 1.492 0 .808-2.566 1.466-7.5 1.922l-7.5.695v7.48l5.75.673c7.578.889 15.75 3.78 15.75 5.574 0 .946-.83 1.3-2.5 1.066-1.375-.193-6.612-.556-11.638-.806l-9.137-.455-.684 10.191c-.377 5.605-.908 10.97-1.18 11.92-.481 1.676-3.287 2.483-3.435.988zm12.074-24.957c8.424-.502 8.455-.514 3.5-1.299-11.206-1.775-10.5-1.368-10.5-6.056 0-4.87 1.107-6.118 6.004-6.764 1.922-.253-.985-.272-6.461-.04-5.477.23-10.164.624-10.417.874-.253.25.71.454 2.14.454 1.622 0 2.783.65 3.089 1.729.588 2.076 2.096 21.112 1.772 22.376-.125.488.12 1.6.545 2.47.472.965.978-1.307 1.3-5.828l.528-7.41zM18.383 6.99C17.3 4.23 19.197.942 22.122.508c2.975-.442 5.733 3.897 4.234 6.662-1.584 2.925-6.8 2.807-7.973-.18zm6.438-2.223c0-2.504-3.972-3.279-4.876-.951-.89 2.291.2 3.585 2.72 3.23 1.386-.195 2.156-1.008 2.156-2.28z"/></svg>