<svg width="40" height="43" fill="none" xmlns="http://www.w3.org/2000/svg"><g clip-path="url(#clip0)"><path d="M36.827 5.969c-2.07-2.364-4.912-3.666-8.001-3.666-2.309 0-4.424.768-6.285 2.283-.94.765-1.79 1.7-2.541 2.793a13.253 13.253 0 00-2.541-2.793c-1.861-1.515-3.976-2.283-6.285-2.283-3.089 0-5.93 1.302-8.001 3.666C1.127 8.305 0 11.497 0 14.956c0 3.561 1.26 6.821 3.967 10.259 2.422 3.075 5.901 6.197 9.931 9.812a476.832 476.832 0 014.556 4.124c.427.395.976.612 1.546.612a2.28 2.28 0 001.546-.611c1.62-1.491 3.18-2.891 4.557-4.126 4.029-3.614 7.509-6.736 9.93-9.811C38.74 21.777 40 18.517 40 14.956c0-3.46-1.127-6.651-3.173-8.987z" fill="#F2802B"/></g><path d="M23.71 21.805a2.79 2.79 0 00-1.949-.654 2.82 2.82 0 00-1.871.87 3.087 3.087 0 00-.828 1.972 3.116 3.116 0 00.638 2.05c.802-1.88 2.228-3.386 4.01-4.238zM27.43 25a.487.487 0 00-.132-.335.44.44 0 00-.318-.139.44.44 0 00-.318.14.487.487 0 00-.132.334v4.737l3.53 1.842a.43.43 0 00.344.022.459.459 0 00.259-.24.497.497 0 00.02-.363.467.467 0 00-.228-.272l-3.03-1.579L27.43 25z" fill="#fff"/><path d="M32 34.621a7.43 7.43 0 001.836-3.544 7.676 7.676 0 00-.231-4.03 3.329 3.329 0 01-1.055.027c.527 1.35.593 2.85.188 4.246a6.298 6.298 0 01-2.412 3.41 5.77 5.77 0 01-3.918 1.029 5.881 5.881 0 01-3.65-1.82 6.458 6.458 0 01-1.729-3.842 6.575 6.575 0 01.977-4.125 6.037 6.037 0 013.24-2.538 5.72 5.72 0 014.034.198 4.165 4.165 0 01-.03-.474c.002-.214.02-.427.055-.637a6.67 6.67 0 00-4.607.02c-1.49.554-2.757 1.622-3.597 3.03a7.68 7.68 0 00-1.03 4.726 7.533 7.533 0 001.984 4.377l-1.275 1.342a.545.545 0 00-.144.376.547.547 0 00.152.374.49.49 0 00.357.151.492.492 0 00.355-.16l1.33-1.4a6.725 6.725 0 004.227 1.483 6.73 6.73 0 004.213-1.524l1.37 1.442a.485.485 0 00.679-.028.544.544 0 00.026-.715L32 34.622z" fill="#fff"/><path d="M33 25.79c1.38 0 2.5-1.179 2.5-2.632s-1.12-2.632-2.5-2.632-2.5 1.179-2.5 2.632 1.12 2.631 2.5 2.631z" fill="#FFFDFD"/><defs><clipPath id="clip0"><path fill="#fff" d="M0 0h40v42.105H0z"/></clipPath></defs></svg>