<svg width="45" height="45" fill="none" xmlns="http://www.w3.org/2000/svg"><path fill-rule="evenodd" clip-rule="evenodd" d="M13.224.135C15.623.025 16.388 0 22.5 0s6.877.027 9.274.135c2.397.108 4.034.49 5.465 1.045a11.07 11.07 0 013.985 2.598 10.99 10.99 0 012.594 3.982c.556 1.432.936 3.069 1.047 5.462.11 2.403.135 3.168.135 9.278 0 6.112-.027 6.877-.135 9.276-.109 2.393-.491 4.03-1.047 5.461a11.037 11.037 0 01-2.594 3.987 11.032 11.032 0 01-3.985 2.594c-1.431.556-3.068.937-5.461 1.047-2.401.11-3.166.135-9.278.135s-6.877-.027-9.276-.135c-2.393-.108-4.03-.49-5.462-1.047a11.04 11.04 0 01-3.986-2.594A11.028 11.028 0 011.18 37.24C.626 35.807.245 34.17.135 31.777.025 29.375 0 28.61 0 22.5c0-6.112.026-6.877.135-9.274.108-2.397.49-4.034 1.045-5.466a11.037 11.037 0 012.598-3.984A11.03 11.03 0 017.76 1.18C9.192.626 10.83.245 13.222.135h.002zm18.368 4.05c-2.373-.108-3.085-.13-9.092-.13-6.008 0-6.72.022-9.092.13-2.195.1-3.385.466-4.18.775-1.048.41-1.8.894-2.587 1.682a6.98 6.98 0 00-1.68 2.587c-.31.794-.676 1.984-.776 4.179-.109 2.373-.131 3.085-.131 9.092 0 6.008.022 6.72.13 9.092.101 2.195.467 3.385.776 4.179.36.976.935 1.861 1.681 2.587A6.984 6.984 0 009.23 40.04c.794.309 1.984.675 4.179.775 2.373.108 3.082.13 9.092.13 6.01 0 6.72-.022 9.092-.13 2.195-.1 3.385-.466 4.179-.775 1.05-.41 1.8-.894 2.587-1.682a6.985 6.985 0 001.682-2.587c.309-.794.675-1.984.775-4.179.108-2.373.13-3.084.13-9.092 0-6.008-.022-6.72-.13-9.092-.1-2.195-.466-3.385-.775-4.179-.41-1.05-.894-1.8-1.682-2.587a6.981 6.981 0 00-2.587-1.682c-.794-.309-1.984-.675-4.18-.775zM19.626 29.436a7.505 7.505 0 008.182-12.244 7.507 7.507 0 10-8.182 12.244zm-5.304-15.114A11.566 11.566 0 1130.678 30.68a11.566 11.566 0 01-16.356-16.357zm22.308-1.665a2.736 2.736 0 10-3.755-3.98 2.736 2.736 0 003.755 3.98z" fill="#F2802B"/></svg>