<svg width="220" height="41" fill="none" xmlns="http://www.w3.org/2000/svg"><path d="M50.93 33.748V17.396h5.727c1.984 0 3.489.382 4.515 1.146 1.025.756 1.538 1.868 1.538 3.335 0 .801-.206 1.509-.617 2.123-.412.606-.985 1.052-1.719 1.336.839.21 1.498.633 1.977 1.27.486.636.73 1.414.73 2.335 0 1.573-.502 2.763-1.505 3.572-1.003.808-2.433 1.22-4.29 1.235h-6.357zm3.369-7.12v4.413h2.886c.793 0 1.411-.187 1.853-.561.45-.382.674-.906.674-1.572 0-1.498-.775-2.258-2.325-2.28h-3.088zm0-2.381h2.493c1.7-.03 2.55-.708 2.55-2.033 0-.741-.218-1.273-.652-1.595-.427-.329-1.105-.494-2.033-.494h-2.358v4.122zm14.689 6.794h7.154v2.707H65.619V17.396h3.369v13.645zm18.553-.662h-5.907l-1.124 3.369h-3.582l6.087-16.352h3.122l6.12 16.352h-3.582l-1.134-3.37zm-4.998-2.73h4.088l-2.055-6.12-2.033 6.12zm23.831.652c-.127 1.76-.778 3.145-1.954 4.155-1.168 1.011-2.71 1.516-4.627 1.516-2.096 0-3.747-.703-4.952-2.11-1.198-1.416-1.797-3.355-1.797-5.818v-1c0-1.572.277-2.957.83-4.155.555-1.198 1.345-2.115 2.37-2.752 1.034-.643 2.231-.965 3.594-.965 1.887 0 3.407.505 4.56 1.516 1.153 1.01 1.819 2.43 1.999 4.256h-3.369c-.083-1.055-.379-1.82-.888-2.29-.501-.48-1.269-.72-2.302-.72-1.123 0-1.965.405-2.527 1.213-.554.801-.838 2.048-.853 3.74v1.235c0 1.767.266 3.059.797 3.875.54.816 1.385 1.224 2.538 1.224 1.041 0 1.816-.236 2.325-.707.517-.48.812-1.217.887-2.213h3.369zm7.334-1.112l-1.752 1.887v4.672h-3.369V17.396h3.369v7.412l1.482-2.032 4.167-5.38h4.144l-5.806 7.266 5.974 9.086h-4.009l-4.2-6.559zm15.206 6.559V17.396h5.031c1.438 0 2.722.326 3.852.977 1.138.644 2.025 1.565 2.662 2.763.636 1.19.954 2.546.954 4.066v.752c0 1.52-.314 2.871-.943 4.054a6.676 6.676 0 01-2.639 2.752c-1.138.651-2.422.98-3.852.988h-5.065zm3.369-13.623v10.916h1.628c1.318 0 2.325-.43 3.021-1.291.697-.861 1.052-2.093 1.067-3.695v-.865c0-1.662-.344-2.92-1.033-3.773-.689-.861-1.696-1.292-3.021-1.292h-1.662zm20.574 10.254h-5.907l-1.123 3.369h-3.583l6.087-16.352h3.122l6.121 16.352h-3.583l-1.134-3.37zm-4.997-2.73h4.088l-2.056-6.12-2.032 6.12zm22.202-7.524h-5.009v13.623h-3.369V20.125h-4.941v-2.729h13.319v2.73zm5.514 13.623h-3.369V17.396h3.369v16.352zm16.431 0h-3.37l-6.558-10.759v10.759h-3.369V17.396h3.369l6.57 10.782V17.396h3.358v16.352zm15.879-2.066c-.606.726-1.463 1.291-2.571 1.695-1.108.397-2.336.595-3.684.595-1.415 0-2.658-.306-3.728-.92-1.064-.622-1.887-1.52-2.471-2.696-.577-1.175-.872-2.557-.887-4.144V25.1c0-1.632.273-3.043.82-4.234.554-1.197 1.347-2.11 2.38-2.74 1.041-.636 2.258-.954 3.65-.954 1.939 0 3.456.464 4.549 1.392 1.093.921 1.74 2.265 1.942 4.032h-3.279c-.15-.936-.483-1.62-.999-2.055-.509-.434-1.213-.651-2.112-.651-1.145 0-2.017.43-2.616 1.291-.599.861-.903 2.141-.91 3.84v1.045c0 1.715.326 3.01.977 3.886.651.876 1.606 1.314 2.864 1.314 1.265 0 2.167-.27 2.706-.809v-2.819h-3.066v-2.481h6.435v6.524z" fill="#fff"/><path d="M20.5 22.213C33.619 13.905 33.049 6.647 33.049 6.647c0-3.671-3.05-6.647-6.813-6.647A6.85 6.85 0 0020.5 3.059 6.85 6.85 0 0014.764 0C11 0 7.95 2.976 7.95 6.647c0 0-.57 7.258 12.549 15.566zM9.171 20.828l-.955.932a2.447 2.447 0 000 3.52l1.915 1.87-1.698 1.657-4.579-4.467.049-5.465c0-1.375-1.143-2.49-2.552-2.49H0v9.188l7.599 7.804c1.993 1.945 5.224 1.945 7.217 0a4.894 4.894 0 000-7.041l-5.645-5.508zm-1.366 15.56V40h8.506v-4.774a7.555 7.555 0 01-5.103 1.954 7.624 7.624 0 01-3.403-.792zM39.65 16.386c-1.41 0-2.553 1.115-2.553 2.49l.049 5.463-4.579 4.467-1.698-1.657 1.915-1.868a2.447 2.447 0 000-3.521l-.955-.932-5.646 5.508a4.894 4.894 0 000 7.041c1.994 1.945 5.225 1.945 7.218 0L41 25.573v-9.187h-1.35zm-14.961 18.84V40h8.506v-3.612a7.625 7.625 0 01-3.403.792 7.555 7.555 0 01-5.103-1.954z" fill="#F2802B"/></svg>