<svg width="45" height="43" fill="none" xmlns="http://www.w3.org/2000/svg"><path d="M9.779 23.555v10.518s6.763-4.202 12.759-4.202 12.76 4.202 12.76 4.202V23.408s-6.451-5.089-12.86-5.089c-6.406-.004-12.66 5.236-12.66 5.236z" fill="#F2802B"/><path d="M42.462 21.05L45 19.017l-2.538-2.096v-.994s.715-5.404-3.346-2.578c-.207.168-.318.337-.363.503L22.006 0 0 18.783l8.31 5.63v-1.827s6.973-5.838 14.12-5.838c7.145 0 14.337 5.674 14.337 5.674v3.191l4.588-3.675v14.879h-1.527v5.288l2.031-2.093 2.255 2.093v-5.29h-1.651V21.05zm-1.108-6.043v.996l-1.339-1.107c.488-.483 1.34-1.152 1.34.111zm-.453 5.836c-.592 0-1.075-.715-1.075-1.599 0-.883.483-1.6 1.075-1.6.594 0 1.073.717 1.073 1.6 0 .884-.48 1.599-1.073 1.599z" fill="#F2802B"/></svg>