<svg width="47" height="45" fill="none" xmlns="http://www.w3.org/2000/svg"><path d="M47 5.338a17.095 17.095 0 01-5.537 1.787c2.014-1.42 3.52-3.653 4.24-6.285-1.893 1.324-3.964 2.255-6.124 2.755C38.127 1.768 36.203.558 34.107.15c-2.096-.407-4.248.013-6.121 1.194-1.873 1.181-3.363 3.058-4.237 5.338a13.23 13.23 0 00-.6 7.273c-3.835-.227-7.586-1.4-11.01-3.445-3.424-2.045-6.445-4.914-8.866-8.423a12.932 12.932 0 00-1.304 5.71 13 13 0 001.138 5.36c.748 1.65 1.83 3.055 3.15 4.094-1.53-.058-3.028-.545-4.367-1.421v.146c0 2.622.77 5.164 2.18 7.194 1.41 2.03 3.373 3.423 5.555 3.942-1.42.453-2.91.52-4.355.195.616 2.257 1.815 4.23 3.43 5.644 1.616 1.413 3.566 2.197 5.578 2.24-3.415 3.158-7.634 4.871-11.976 4.864-.77 0-1.538-.053-2.302-.158 4.408 3.338 9.539 5.11 14.78 5.103 17.739 0 27.436-17.304 27.436-32.312 0-.488-.01-.98-.029-1.468 1.887-1.606 3.515-3.596 4.809-5.875L47 5.338z" fill="#F2802B"/></svg>