<svg width="45" height="43" fill="none" xmlns="http://www.w3.org/2000/svg"><g clip-path="url(#clip0)"><path d="M36.8 32.932c2.308 1.518 3.627 4.224 3.462 6.93-.11 1.65-.165 1.715-1.923 1.98-1.099.197-8.022.263-15.165.263-8.076 0-16.538-.198-17.142-.396-2.418-.726-1.1-6.005 2.088-8.513 2.472-1.914 7.527-4.818 8.9-5.148 1.869-.462 2.089-1.848 0-6.335-.494-.99-1.043-4.026-1.098-7.194-.055-5.148.769-8.645 4.505-10.361a5.696 5.696 0 012.253-.462c2.472 0 4.78 1.65 5.714 4.092 1.374 3.233.824 11.879-.604 14.98-1.649 3.498-1.484 4.62.33 5.214 1.208.396 4.944 2.508 8.68 4.95zm-29.89-1.98c-.878.726-1.702 1.65-2.362 2.574-2.088 0-3.681-.066-3.846-.132-1.373-.396-.604-3.432 1.209-4.752 1.374-1.056 4.176-2.706 4.945-2.904.989-.264 1.209-.99 0-3.497-.275-.528-.604-2.244-.604-4.026-.055-2.904.44-4.884 2.527-5.742 1.758-.792 3.736.198 4.45 1.98.715 1.848.33 6.6-.439 8.316-.88 2.045-.714 2.573.275 2.903.22.066.659.33 1.263.66-2.417 1.188-5.714 3.366-7.417 4.62zm36.154-2.508c1.319.858 2.033 2.31 1.923 3.828-.055.924-.055.99-1.044 1.122-.274.066-1.538.132-3.186.132-.715-1.122-1.704-2.178-2.912-2.904-2.253-1.584-5-3.3-7.033-4.356.55-.264 1.044-.462 1.263-.528 1.044-.264 1.21-.99 0-3.497-.22-.528-.604-2.244-.604-4.026-.055-2.904.385-4.884 2.473-5.742 1.813-.792 3.79.198 4.45 1.98.714 1.848.44 6.6-.33 8.316-.879 2.045-.769 2.573.165 2.903.66.264 2.747 1.452 4.835 2.772z" fill="#F2802B"/></g><defs><clipPath id="clip0"><path fill="#fff" d="M0 0h45v42.105H0z"/></clipPath></defs></svg>